<?xml version="1.0" standalone="no"?>
<!DOCTYPE svg PUBLIC "-//W3C//DTD SVG 20010904//EN" 
"http://www.w3.org/TR/2001/REC-SVG-20010904/DTD/svg10.dtd"> 
<svg xmlns="http://www.w3.org/2000/svg" xmlns:xlink="http://www.w3.org/1999/xlink" 
    width="29.72cm" height="21.00cm" viewBox="0 0 117000 82670 "> 
<title>SVG Picture created as DomeLight-Mask_Front.svg </title>
<desc>Picture generated by wxSVG v0100 </desc>
<g style="fill:black; stroke:black; stroke-width:1">
</g>
<g style="fill:#FFFFFF; fill-opacity:1.00; stroke:#000000; stroke-opacity:1.00; stroke-linecap:round; stroke-linejoin:round; stroke-width:150" 
   transform="translate(0.00 0.00) scale(1.00 1.00)">
<path d="M86250 48910 L87480 48910" /> 
<path d="M86250 64200 L86250 48910" /> 
<path d="M96350 64200 L86250 64200" /> 
<path d="M96350 48900 L96350 64200" /> 
<path d="M86750 48900 L96350 48900" /> 
</g>
<g style="fill:#000000; fill-opacity:0.0; stroke:#000000; stroke-opacity:1.00; stroke-linecap:round; stroke-linejoin:round; stroke-width:60" 
   transform="translate(0.00 0.00) scale(1.00 1.00)">
<path d="M93571 60132 L93177 60132" /> 
<path d="M93177 60132 L93177 59856" /> 
<path d="M93177 59856 L93571 59856" /> 
<path d="M93571 60132 L93571 59856" /> 
<path d="M94571 59757 L94177 59757" /> 
<path d="M94177 59757 L94177 59481" /> 
<path d="M94177 59481 L94571 59481" /> 
<path d="M94571 59757 L94571 59481" /> 
<path d="M94571 60507 L94177 60507" /> 
<path d="M94177 60507 L94177 60231" /> 
<path d="M94177 60231 L94571 60231" /> 
<path d="M94571 60507 L94571 60231" /> 
<path d="M87725 60070 L87725 59270" /> 
<path d="M87725 59270 L89165 59270" /> 
<path d="M89165 59270 L89165 60070" /> 
<path d="M87725 60070 L89165 60070" /> 
<path d="M88245 62670 L88245 61870" /> 
<path d="M88245 61870 L88645 61870" /> 
<path d="M88645 61870 L88645 62670" /> 
<path d="M88245 62670 L88645 62670" /> 
<path d="M89145 62670 L89145 61870" /> 
<path d="M89145 61870 L89545 61870" /> 
<path d="M89545 61870 L89545 62670" /> 
<path d="M89145 62670 L89545 62670" /> 
<path d="M87345 62670 L87345 61870" /> 
<path d="M87345 61870 L87745 61870" /> 
<path d="M87745 61870 L87745 62670" /> 
<path d="M87345 62670 L87745 62670" /> 
<path d="M90225 55890 L89775 55890" /> 
<path d="M89775 55890 L89775 55690" /> 
<path d="M89775 55690 L90225 55690" /> 
<path d="M90225 55890 L90225 55690" /> 
<path d="M90225 55390 L89775 55390" /> 
<path d="M89775 55390 L89775 55190" /> 
<path d="M89775 55190 L90225 55190" /> 
<path d="M90225 55390 L90225 55190" /> 
<path d="M90225 54890 L89775 54890" /> 
<path d="M89775 54890 L89775 54690" /> 
<path d="M89775 54690 L90225 54690" /> 
<path d="M90225 54890 L90225 54690" /> 
<path d="M90225 54390 L89775 54390" /> 
<path d="M89775 54390 L89775 54190" /> 
<path d="M89775 54190 L90225 54190" /> 
<path d="M90225 54390 L90225 54190" /> 
<path d="M92725 54390 L92275 54390" /> 
<path d="M92275 54390 L92275 54190" /> 
<path d="M92275 54190 L92725 54190" /> 
<path d="M92725 54390 L92725 54190" /> 
<path d="M92725 54890 L92275 54890" /> 
<path d="M92275 54890 L92275 54690" /> 
<path d="M92275 54690 L92725 54690" /> 
<path d="M92725 54890 L92725 54690" /> 
<path d="M92725 55390 L92275 55390" /> 
<path d="M92275 55390 L92275 55190" /> 
<path d="M92275 55190 L92725 55190" /> 
<path d="M92725 55390 L92725 55190" /> 
<path d="M92725 55890 L92275 55890" /> 
<path d="M92275 55890 L92275 55690" /> 
<path d="M92275 55690 L92725 55690" /> 
<path d="M92725 55890 L92725 55690" /> 
<path d="M90400 58400 L90400 57600" /> 
<path d="M90400 57600 L91000 57600" /> 
<path d="M91000 57600 L91000 58400" /> 
<path d="M90400 58400 L91000 58400" /> 
<path d="M91700 58400 L91700 57600" /> 
<path d="M91700 57600 L92300 57600" /> 
<path d="M92300 57600 L92300 58400" /> 
<path d="M91700 58400 L92300 58400" /> 
<path d="M95060 57675 L95060 58225" /> 
<path d="M95060 58225 L94710 58225" /> 
<path d="M94710 58225 L94710 57675" /> 
<path d="M95060 57675 L94710 57675" /> 
<path d="M94310 57675 L94310 58225" /> 
<path d="M94310 58225 L93960 58225" /> 
<path d="M93960 58225 L93960 57675" /> 
<path d="M94310 57675 L93960 57675" /> 
<path d="M95080 56195 L95080 56745" /> 
<path d="M95080 56745 L94730 56745" /> 
<path d="M94730 56745 L94730 56195" /> 
<path d="M95080 56195 L94730 56195" /> 
<path d="M94330 56195 L94330 56745" /> 
<path d="M94330 56745 L93980 56745" /> 
<path d="M93980 56745 L93980 56195" /> 
<path d="M94330 56195 L93980 56195" /> 
<path d="M95100 53875 L95100 54425" /> 
<path d="M95100 54425 L94750 54425" /> 
<path d="M94750 54425 L94750 53875" /> 
<path d="M95100 53875 L94750 53875" /> 
<path d="M94350 53875 L94350 54425" /> 
<path d="M94350 54425 L94000 54425" /> 
<path d="M94000 54425 L94000 53875" /> 
<path d="M94350 53875 L94000 53875" /> 
<path d="M95100 55025 L95100 55575" /> 
<path d="M95100 55575 L94750 55575" /> 
<path d="M94750 55575 L94750 55025" /> 
<path d="M95100 55025 L94750 55025" /> 
<path d="M94350 55025 L94350 55575" /> 
<path d="M94350 55575 L94000 55575" /> 
<path d="M94000 55575 L94000 55025" /> 
<path d="M94350 55025 L94000 55025" /> 
<path d="M87500 56275 L87500 55725" /> 
<path d="M87500 55725 L87850 55725" /> 
<path d="M87850 55725 L87850 56275" /> 
<path d="M87500 56275 L87850 56275" /> 
<path d="M88250 56275 L88250 55725" /> 
<path d="M88250 55725 L88600 55725" /> 
<path d="M88600 55725 L88600 56275" /> 
<path d="M88250 56275 L88600 56275" /> 
<path d="M87500 55125 L87500 54575" /> 
<path d="M87500 54575 L87850 54575" /> 
<path d="M87850 54575 L87850 55125" /> 
<path d="M87500 55125 L87850 55125" /> 
<path d="M88250 55125 L88250 54575" /> 
<path d="M88250 54575 L88600 54575" /> 
<path d="M88600 54575 L88600 55125" /> 
<path d="M88250 55125 L88600 55125" /> 
<path d="M87500 54035 L87500 53485" /> 
<path d="M87500 53485 L87850 53485" /> 
<path d="M87850 53485 L87850 54035" /> 
<path d="M87500 54035 L87850 54035" /> 
<path d="M88250 54035 L88250 53485" /> 
<path d="M88250 53485 L88600 53485" /> 
<path d="M88600 53485 L88600 54035" /> 
<path d="M88250 54035 L88600 54035" /> 
<ellipse cx="92340" cy="50870" rx="750" ry="750"  /> 
<ellipse cx="90340" cy="50870" rx="750" ry="750"  /> 
<path d="M95090 50120 L95090 51620" /> 
<path d="M95090 51620 L93590 51620" /> 
<path d="M93590 51620 L93590 50120" /> 
<path d="M95090 50120 L93590 50120" /> 
<ellipse cx="88340" cy="50870" rx="750" ry="750"  /> 
</g> 
</svg> 
