<?xml version="1.0" standalone="no"?>
<!DOCTYPE svg PUBLIC "-//W3C//DTD SVG 20010904//EN" 
"http://www.w3.org/TR/2001/REC-SVG-20010904/DTD/svg10.dtd"> 
<svg xmlns="http://www.w3.org/2000/svg" xmlns:xlink="http://www.w3.org/1999/xlink" 
    width="29.72cm" height="21.00cm" viewBox="0 0 117000 82670 "> 
<title>SVG Picture created as DomeLight-SilkS_Front.svg </title>
<desc>Picture generated by wxSVG v0100 </desc>
<g style="fill:black; stroke:black; stroke-width:1">
</g>
<g style="fill:#000000; fill-opacity:0.0; stroke:#000000; stroke-opacity:1.00; stroke-linecap:round; stroke-linejoin:round; stroke-width:150" 
   transform="translate(0.00 0.00) scale(1.00 1.00)">
<path d="M86250 48910 L87480 48910" /> 
<path d="M86250 64200 L86250 48910" /> 
<path d="M96350 64200 L86250 64200" /> 
<path d="M96350 48900 L96350 64200" /> 
<path d="M86750 48900 L96350 48900" /> 
</g>
<g style="fill:#000000; fill-opacity:0.0; stroke:#000000; stroke-opacity:1.00; stroke-linecap:round; stroke-linejoin:round; stroke-width:0" 
   transform="translate(0.00 0.00) scale(1.00 1.00)">
<path d="M93833 59207 L93837 59207" /> 
<path d="M93835 59205 L93835 59209" /> 
</g>
<g style="fill:#000000; fill-opacity:0.0; stroke:#000000; stroke-opacity:1.00; stroke-linecap:round; stroke-linejoin:round; stroke-width:30" 
   transform="translate(0.00 0.00) scale(1.00 1.00)">
<path d="M93806 59357 L93778 59343" /> 
<path d="M93778 59343 L93749 59314" /> 
<path d="M93749 59314 L93706 59271" /> 
<path d="M93706 59271 L93678 59257" /> 
<path d="M93678 59257 L93649 59257" /> 
<g style = "stroke-linecap:round;" > 
<path d="M93649 59257 L93649 59257" /> 
</g><path d="M93664 59328 L93635 59314" /> 
<path d="M93635 59314 L93606 59286" /> 
<path d="M93606 59286 L93592 59228" /> 
<path d="M93592 59228 L93592 59128" /> 
<path d="M93592 59128 L93606 59071" /> 
<path d="M93606 59071 L93635 59043" /> 
<path d="M93635 59043 L93664 59028" /> 
<path d="M93664 59028 L93721 59028" /> 
<path d="M93721 59028 L93749 59043" /> 
<path d="M93749 59043 L93778 59071" /> 
<path d="M93778 59071 L93792 59128" /> 
<path d="M93792 59128 L93792 59228" /> 
<path d="M93792 59228 L93778 59286" /> 
<path d="M93778 59286 L93749 59314" /> 
<path d="M93749 59314 L93721 59328" /> 
<path d="M93721 59328 L93664 59328" /> 
<path d="M94078 59328 L93906 59328" /> 
<g style = "stroke-linecap:round;" > 
<path d="M93906 59328 L93906 59328" /> 
</g><path d="M93992 59328 L93992 59028" /> 
<path d="M93992 59028 L93963 59071" /> 
<path d="M93963 59071 L93935 59100" /> 
<path d="M93935 59100 L93906 59114" /> 
<g style = "stroke-linecap:round;" > 
<path d="M93906 59114 L93906 59114" /> 
</g></g>
<g style="fill:#000000; fill-opacity:0.0; stroke:#000000; stroke-opacity:1.00; stroke-linecap:round; stroke-linejoin:round; stroke-width:0" 
   transform="translate(0.00 0.00) scale(1.00 1.00)">
<path d="M93872 59969 L93876 59969" /> 
<path d="M93874 59967 L93874 59971" /> 
</g>
<g style="fill:#000000; fill-opacity:0.0; stroke:#000000; stroke-opacity:1.00; stroke-linecap:round; stroke-linejoin:round; stroke-width:30" 
   transform="translate(0.00 0.00) scale(1.00 1.00)">
<path d="M93953 60658 L93756 60658" /> 
<path d="M93756 60658 L93897 60592" /> 
<path d="M93897 60592 L93756 60527" /> 
<path d="M93756 60527 L93953 60527" /> 
<g style = "stroke-linecap:round;" > 
<path d="M93953 60527 L93953 60527" /> 
</g><path d="M93756 60396 L93756 60358" /> 
<path d="M93756 60358 L93766 60339" /> 
<path d="M93766 60339 L93784 60321" /> 
<path d="M93784 60321 L93822 60311" /> 
<path d="M93822 60311 L93888 60311" /> 
<path d="M93888 60311 L93925 60321" /> 
<path d="M93925 60321 L93944 60339" /> 
<path d="M93944 60339 L93953 60358" /> 
<path d="M93953 60358 L93953 60396" /> 
<path d="M93953 60396 L93944 60414" /> 
<path d="M93944 60414 L93925 60433" /> 
<path d="M93925 60433 L93888 60442" /> 
<path d="M93888 60442 L93822 60442" /> 
<path d="M93822 60442 L93784 60433" /> 
<path d="M93784 60433 L93766 60414" /> 
<path d="M93766 60414 L93756 60396" /> 
<path d="M93944 60236 L93953 60208" /> 
<path d="M93953 60208 L93953 60161" /> 
<path d="M93953 60161 L93944 60143" /> 
<path d="M93944 60143 L93934 60133" /> 
<path d="M93934 60133 L93916 60124" /> 
<path d="M93916 60124 L93897 60124" /> 
<path d="M93897 60124 L93878 60133" /> 
<path d="M93878 60133 L93869 60143" /> 
<path d="M93869 60143 L93859 60161" /> 
<path d="M93859 60161 L93850 60199" /> 
<path d="M93850 60199 L93841 60218" /> 
<path d="M93841 60218 L93831 60227" /> 
<path d="M93831 60227 L93813 60236" /> 
<path d="M93813 60236 L93794 60236" /> 
<path d="M93794 60236 L93775 60227" /> 
<path d="M93775 60227 L93766 60218" /> 
<path d="M93766 60218 L93756 60199" /> 
<path d="M93756 60199 L93756 60152" /> 
<path d="M93756 60152 L93766 60124" /> 
<g style = "stroke-linecap:round;" > 
<path d="M93766 60124 L93766 60124" /> 
</g><path d="M93850 59973 L93850 60039" /> 
<g style = "stroke-linecap:round;" > 
<path d="M93850 60039 L93850 60039" /> 
</g><path d="M93953 60039 L93756 60039" /> 
<path d="M93756 60039 L93756 59945" /> 
<g style = "stroke-linecap:round;" > 
<path d="M93756 59945 L93756 59945" /> 
</g><path d="M93850 59870 L93850 59804" /> 
<g style = "stroke-linecap:round;" > 
<path d="M93850 59804 L93850 59804" /> 
</g><path d="M93953 59776 L93953 59870" /> 
<path d="M93953 59870 L93756 59870" /> 
<path d="M93756 59870 L93756 59776" /> 
<g style = "stroke-linecap:round;" > 
<path d="M93756 59776 L93756 59776" /> 
</g><path d="M93756 59720 L93756 59608" /> 
<g style = "stroke-linecap:round;" > 
<path d="M93756 59608 L93756 59608" /> 
</g><path d="M93953 59664 L93756 59664" /> 
<g style = "stroke-linecap:round;" > 
<path d="M93756 59664 L93756 59664" /> 
</g><path d="M93972 59589 L93972 59439" /> 
<g style = "stroke-linecap:round;" > 
<path d="M93972 59439 L93972 59439" /> 
</g><path d="M93953 59392 L93756 59392" /> 
<path d="M93756 59392 L93953 59280" /> 
<path d="M93953 59280 L93756 59280" /> 
<g style = "stroke-linecap:round;" > 
<path d="M93756 59280 L93756 59280" /> 
</g></g>
<g style="fill:#000000; fill-opacity:0.0; stroke:#000000; stroke-opacity:1.00; stroke-linecap:round; stroke-linejoin:round; stroke-width:50" 
   transform="translate(0.00 0.00) scale(1.00 1.00)">
<path d="M94174 60194 L93974 60494" /> 
<path d="M94174 59494 L94174 60519" /> 
<path d="M94174 60519 L93574 60519" /> 
<path d="M93574 60519 L93574 59494" /> 
<path d="M93574 59494 L94174 59494" /> 
</g>
<g style="fill:#000000; fill-opacity:0.0; stroke:#000000; stroke-opacity:1.00; stroke-linecap:round; stroke-linejoin:round; stroke-width:0" 
   transform="translate(0.00 0.00) scale(1.00 1.00)">
<path d="M88443 60670 L88447 60670" /> 
<path d="M88445 60668 L88445 60672" /> 
</g>
<g style="fill:#000000; fill-opacity:0.0; stroke:#000000; stroke-opacity:1.00; stroke-linecap:round; stroke-linejoin:round; stroke-width:80" 
   transform="translate(0.00 0.00) scale(1.00 1.00)">
<path d="M88140 60432 L88140 60756" /> 
<path d="M88140 60756 L88159 60794" /> 
<path d="M88159 60794 L88178 60813" /> 
<path d="M88178 60813 L88216 60832" /> 
<path d="M88216 60832 L88293 60832" /> 
<path d="M88293 60832 L88331 60813" /> 
<path d="M88331 60813 L88350 60794" /> 
<path d="M88350 60794 L88369 60756" /> 
<path d="M88369 60756 L88369 60432" /> 
<g style = "stroke-linecap:round;" > 
<path d="M88369 60432 L88369 60432" /> 
</g><path d="M88769 60832 L88540 60832" /> 
<g style = "stroke-linecap:round;" > 
<path d="M88540 60832 L88540 60832" /> 
</g><path d="M88654 60832 L88654 60432" /> 
<path d="M88654 60432 L88616 60489" /> 
<path d="M88616 60489 L88578 60527" /> 
<path d="M88578 60527 L88540 60546" /> 
<g style = "stroke-linecap:round;" > 
<path d="M88540 60546 L88540 60546" /> 
</g></g>
<g style="fill:#000000; fill-opacity:0.0; stroke:#000000; stroke-opacity:1.00; stroke-linecap:round; stroke-linejoin:round; stroke-width:0" 
   transform="translate(0.00 0.00) scale(1.00 1.00)">
<path d="M88443 61270 L88447 61270" /> 
<path d="M88445 61268 L88445 61272" /> 
</g>
<g style="fill:#000000; fill-opacity:0.0; stroke:#000000; stroke-opacity:1.00; stroke-linecap:round; stroke-linejoin:round; stroke-width:80" 
   transform="translate(0.00 0.00) scale(1.00 1.00)">
<path d="M87255 61432 L87255 61032" /> 
<path d="M87255 61032 L87389 61318" /> 
<path d="M87389 61318 L87522 61032" /> 
<path d="M87522 61032 L87522 61432" /> 
<g style = "stroke-linecap:round;" > 
<path d="M87522 61432 L87522 61432" /> 
</g><path d="M87712 61432 L87712 61032" /> 
<g style = "stroke-linecap:round;" > 
<path d="M87712 61032 L87712 61032" /> 
</g><path d="M88131 61394 L88112 61413" /> 
<path d="M88112 61413 L88055 61432" /> 
<path d="M88055 61432 L88017 61432" /> 
<path d="M88017 61432 L87959 61413" /> 
<path d="M87959 61413 L87921 61375" /> 
<path d="M87921 61375 L87902 61337" /> 
<path d="M87902 61337 L87883 61260" /> 
<path d="M87883 61260 L87883 61203" /> 
<path d="M87883 61203 L87902 61127" /> 
<path d="M87902 61127 L87921 61089" /> 
<path d="M87921 61089 L87959 61051" /> 
<path d="M87959 61051 L88017 61032" /> 
<path d="M88017 61032 L88055 61032" /> 
<path d="M88055 61032 L88112 61051" /> 
<path d="M88112 61051 L88131 61070" /> 
<g style = "stroke-linecap:round;" > 
<path d="M88131 61070 L88131 61070" /> 
</g><path d="M88283 61070 L88302 61051" /> 
<path d="M88302 61051 L88340 61032" /> 
<path d="M88340 61032 L88436 61032" /> 
<path d="M88436 61032 L88474 61051" /> 
<path d="M88474 61051 L88493 61070" /> 
<path d="M88493 61070 L88512 61108" /> 
<path d="M88512 61108 L88512 61146" /> 
<path d="M88512 61146 L88493 61203" /> 
<path d="M88493 61203 L88264 61432" /> 
<path d="M88264 61432 L88512 61432" /> 
<g style = "stroke-linecap:round;" > 
<path d="M88512 61432 L88512 61432" /> 
</g><path d="M88702 61432 L88778 61432" /> 
<path d="M88778 61432 L88817 61413" /> 
<path d="M88817 61413 L88836 61394" /> 
<path d="M88836 61394 L88874 61337" /> 
<path d="M88874 61337 L88893 61260" /> 
<path d="M88893 61260 L88893 61108" /> 
<path d="M88893 61108 L88874 61070" /> 
<path d="M88874 61070 L88855 61051" /> 
<path d="M88855 61051 L88817 61032" /> 
<path d="M88817 61032 L88740 61032" /> 
<path d="M88740 61032 L88702 61051" /> 
<path d="M88702 61051 L88683 61070" /> 
<path d="M88683 61070 L88664 61108" /> 
<path d="M88664 61108 L88664 61203" /> 
<path d="M88664 61203 L88683 61241" /> 
<path d="M88683 61241 L88702 61260" /> 
<path d="M88702 61260 L88740 61280" /> 
<path d="M88740 61280 L88817 61280" /> 
<path d="M88817 61280 L88855 61260" /> 
<path d="M88855 61260 L88874 61241" /> 
<path d="M88874 61241 L88893 61203" /> 
<g style = "stroke-linecap:round;" > 
<path d="M88893 61203 L88893 61203" /> 
</g><path d="M89255 61032 L89064 61032" /> 
<path d="M89064 61032 L89045 61222" /> 
<path d="M89045 61222 L89064 61203" /> 
<path d="M89064 61203 L89102 61184" /> 
<path d="M89102 61184 L89198 61184" /> 
<path d="M89198 61184 L89236 61203" /> 
<path d="M89236 61203 L89255 61222" /> 
<path d="M89255 61222 L89274 61260" /> 
<path d="M89274 61260 L89274 61356" /> 
<path d="M89274 61356 L89255 61394" /> 
<path d="M89255 61394 L89236 61413" /> 
<path d="M89236 61413 L89198 61432" /> 
<path d="M89198 61432 L89102 61432" /> 
<path d="M89102 61432 L89064 61413" /> 
<path d="M89064 61413 L89045 61394" /> 
<g style = "stroke-linecap:round;" > 
<path d="M89045 61394 L89045 61394" /> 
</g><path d="M89617 61165 L89617 61432" /> 
<g style = "stroke-linecap:round;" > 
<path d="M89617 61432 L89617 61432" /> 
</g><path d="M89521 61013 L89426 61299" /> 
<path d="M89426 61299 L89674 61299" /> 
<g style = "stroke-linecap:round;" > 
<path d="M89674 61299 L89674 61299" /> 
</g><path d="M87045 61570 L87045 62770" /> 
<path d="M87045 62770 L89845 62770" /> 
<path d="M89845 62770 L89845 61570" /> 
<path d="M87045 60370 L87045 60070" /> 
<path d="M87045 60070 L87645 59170" /> 
<path d="M87645 59170 L89245 59170" /> 
<path d="M89245 59170 L89845 60070" /> 
<path d="M89845 60070 L89845 60370" /> 
</g>
<g style="fill:#000000; fill-opacity:0.0; stroke:#000000; stroke-opacity:1.00; stroke-linecap:round; stroke-linejoin:round; stroke-width:0" 
   transform="translate(0.00 0.00) scale(1.00 1.00)">
<path d="M90748 55040 L90752 55040" /> 
<path d="M90750 55038 L90750 55042" /> 
</g>
<g style="fill:#000000; fill-opacity:0.0; stroke:#000000; stroke-opacity:1.00; stroke-linecap:round; stroke-linejoin:round; stroke-width:50" 
   transform="translate(0.00 0.00) scale(1.00 1.00)">
<path d="M90932 55430 L90482 55430" /> 
<g style = "stroke-linecap:round;" > 
<path d="M90482 55430 L90482 55430" /> 
</g><path d="M90889 55011 L90911 55030" /> 
<path d="M90911 55030 L90932 55087" /> 
<path d="M90932 55087 L90932 55125" /> 
<path d="M90932 55125 L90911 55183" /> 
<path d="M90911 55183 L90868 55221" /> 
<path d="M90868 55221 L90825 55240" /> 
<path d="M90825 55240 L90739 55259" /> 
<path d="M90739 55259 L90675 55259" /> 
<path d="M90675 55259 L90589 55240" /> 
<path d="M90589 55240 L90546 55221" /> 
<path d="M90546 55221 L90504 55183" /> 
<path d="M90504 55183 L90482 55125" /> 
<path d="M90482 55125 L90482 55087" /> 
<path d="M90482 55087 L90504 55030" /> 
<path d="M90504 55030 L90525 55011" /> 
<g style = "stroke-linecap:round;" > 
<path d="M90525 55011 L90525 55011" /> 
</g><path d="M90932 54630 L90932 54859" /> 
<g style = "stroke-linecap:round;" > 
<path d="M90932 54859 L90932 54859" /> 
</g><path d="M90932 54745 L90482 54745" /> 
<path d="M90482 54745 L90546 54783" /> 
<path d="M90546 54783 L90589 54821" /> 
<path d="M90589 54821 L90611 54859" /> 
<g style = "stroke-linecap:round;" > 
<path d="M90611 54859 L90611 54859" /> 
</g></g>
<g style="fill:#000000; fill-opacity:0.0; stroke:#000000; stroke-opacity:1.00; stroke-linecap:round; stroke-linejoin:round; stroke-width:0" 
   transform="translate(0.00 0.00) scale(1.00 1.00)">
<path d="M91748 55040 L91752 55040" /> 
<path d="M91750 55038 L91750 55042" /> 
</g>
<g style="fill:#000000; fill-opacity:0.0; stroke:#000000; stroke-opacity:1.00; stroke-linecap:round; stroke-linejoin:round; stroke-width:50" 
   transform="translate(0.00 0.00) scale(1.00 1.00)">
<path d="M91798 56735 L91798 56544" /> 
<g style = "stroke-linecap:round;" > 
<path d="M91798 56544 L91798 56544" /> 
</g><path d="M91912 56773 L91512 56640" /> 
<path d="M91512 56640 L91912 56506" /> 
<g style = "stroke-linecap:round;" > 
<path d="M91912 56506 L91912 56506" /> 
</g><path d="M91512 56430 L91512 56201" /> 
<g style = "stroke-linecap:round;" > 
<path d="M91512 56201 L91512 56201" /> 
</g><path d="M91912 56316 L91512 56316" /> 
<g style = "stroke-linecap:round;" > 
<path d="M91512 56316 L91512 56316" /> 
</g><path d="M91512 56125 L91512 55896" /> 
<g style = "stroke-linecap:round;" > 
<path d="M91512 55896 L91512 55896" /> 
</g><path d="M91912 56011 L91512 56011" /> 
<g style = "stroke-linecap:round;" > 
<path d="M91512 56011 L91512 56011" /> 
</g><path d="M91912 55763 L91512 55763" /> 
<g style = "stroke-linecap:round;" > 
<path d="M91512 55763 L91512 55763" /> 
</g><path d="M91912 55573 L91512 55573" /> 
<path d="M91512 55573 L91912 55344" /> 
<path d="M91912 55344 L91512 55344" /> 
<g style = "stroke-linecap:round;" > 
<path d="M91512 55344 L91512 55344" /> 
</g><path d="M91721 55078 L91912 55078" /> 
<g style = "stroke-linecap:round;" > 
<path d="M91912 55078 L91912 55078" /> 
</g><path d="M91512 55211 L91721 55078" /> 
<path d="M91721 55078 L91512 54944" /> 
<g style = "stroke-linecap:round;" > 
<path d="M91512 54944 L91512 54944" /> 
</g><path d="M91683 54754 L91664 54792" /> 
<path d="M91664 54792 L91645 54811" /> 
<path d="M91645 54811 L91607 54830" /> 
<path d="M91607 54830 L91588 54830" /> 
<path d="M91588 54830 L91550 54811" /> 
<path d="M91550 54811 L91531 54792" /> 
<path d="M91531 54792 L91512 54754" /> 
<path d="M91512 54754 L91512 54677" /> 
<path d="M91512 54677 L91531 54639" /> 
<path d="M91531 54639 L91550 54620" /> 
<path d="M91550 54620 L91588 54601" /> 
<path d="M91588 54601 L91607 54601" /> 
<path d="M91607 54601 L91645 54620" /> 
<path d="M91645 54620 L91664 54639" /> 
<path d="M91664 54639 L91683 54677" /> 
<path d="M91683 54677 L91683 54754" /> 
<path d="M91683 54754 L91702 54792" /> 
<path d="M91702 54792 L91721 54811" /> 
<path d="M91721 54811 L91760 54830" /> 
<path d="M91760 54830 L91836 54830" /> 
<path d="M91836 54830 L91874 54811" /> 
<path d="M91874 54811 L91893 54792" /> 
<path d="M91893 54792 L91912 54754" /> 
<path d="M91912 54754 L91912 54677" /> 
<path d="M91912 54677 L91893 54639" /> 
<path d="M91893 54639 L91874 54620" /> 
<path d="M91874 54620 L91836 54601" /> 
<path d="M91836 54601 L91760 54601" /> 
<path d="M91760 54601 L91721 54620" /> 
<path d="M91721 54620 L91702 54639" /> 
<path d="M91702 54639 L91683 54677" /> 
<g style = "stroke-linecap:round;" > 
<path d="M91683 54677 L91683 54677" /> 
</g><path d="M91512 54239 L91512 54430" /> 
<path d="M91512 54430 L91702 54449" /> 
<path d="M91702 54449 L91683 54430" /> 
<path d="M91683 54430 L91664 54392" /> 
<path d="M91664 54392 L91664 54296" /> 
<path d="M91664 54296 L91683 54258" /> 
<path d="M91683 54258 L91702 54239" /> 
<path d="M91702 54239 L91740 54220" /> 
<path d="M91740 54220 L91836 54220" /> 
<path d="M91836 54220 L91874 54239" /> 
<path d="M91874 54239 L91893 54258" /> 
<path d="M91893 54258 L91912 54296" /> 
<path d="M91912 54296 L91912 54392" /> 
<path d="M91912 54392 L91893 54430" /> 
<path d="M91893 54430 L91874 54449" /> 
<g style = "stroke-linecap:round;" > 
<path d="M91874 54449 L91874 54449" /> 
</g><path d="M91760 54049 L91760 53744" /> 
<g style = "stroke-linecap:round;" > 
<path d="M91760 53744 L91760 53744" /> 
</g><path d="M91893 53573 L91912 53516" /> 
<path d="M91912 53516 L91912 53420" /> 
<path d="M91912 53420 L91893 53382" /> 
<path d="M91893 53382 L91874 53363" /> 
<path d="M91874 53363 L91836 53344" /> 
<path d="M91836 53344 L91798 53344" /> 
<path d="M91798 53344 L91760 53363" /> 
<path d="M91760 53363 L91740 53382" /> 
<path d="M91740 53382 L91721 53420" /> 
<path d="M91721 53420 L91702 53497" /> 
<path d="M91702 53497 L91683 53535" /> 
<path d="M91683 53535 L91664 53554" /> 
<path d="M91664 53554 L91626 53573" /> 
<path d="M91626 53573 L91588 53573" /> 
<path d="M91588 53573 L91550 53554" /> 
<path d="M91550 53554 L91531 53535" /> 
<path d="M91531 53535 L91512 53497" /> 
<path d="M91512 53497 L91512 53401" /> 
<path d="M91512 53401 L91531 53344" /> 
<g style = "stroke-linecap:round;" > 
<path d="M91531 53344 L91531 53344" /> 
</g><path d="M90350 56040 L90350 54040" /> 
<path d="M90350 54040 L92150 54040" /> 
<path d="M92150 54040 L92150 56040" /> 
<path d="M92150 56040 L90350 56040" /> 
<path d="M90950 56040 L90950 55840" /> 
<path d="M90950 55840 L91450 55840" /> 
<path d="M91450 55840 L91450 56040" /> 
</g>
<g style="fill:#000000; fill-opacity:0.0; stroke:#000000; stroke-opacity:1.00; stroke-linecap:round; stroke-linejoin:round; stroke-width:0" 
   transform="translate(0.00 0.00) scale(1.00 1.00)">
<path d="M91348 58000 L91352 58000" /> 
<path d="M91350 57998 L91350 58002" /> 
</g>
<g style="fill:#000000; fill-opacity:0.0; stroke:#000000; stroke-opacity:1.00; stroke-linecap:round; stroke-linejoin:round; stroke-width:50" 
   transform="translate(0.00 0.00) scale(1.00 1.00)">
<path d="M91300 58093 L91286 58107" /> 
<path d="M91286 58107 L91243 58121" /> 
<path d="M91243 58121 L91214 58121" /> 
<path d="M91214 58121 L91171 58107" /> 
<path d="M91171 58107 L91143 58079" /> 
<path d="M91143 58079 L91128 58050" /> 
<path d="M91128 58050 L91114 57993" /> 
<path d="M91114 57993 L91114 57950" /> 
<path d="M91114 57950 L91128 57893" /> 
<path d="M91128 57893 L91143 57864" /> 
<path d="M91143 57864 L91171 57836" /> 
<path d="M91171 57836 L91214 57821" /> 
<path d="M91214 57821 L91243 57821" /> 
<path d="M91243 57821 L91286 57836" /> 
<path d="M91286 57836 L91300 57850" /> 
<g style = "stroke-linecap:round;" > 
<path d="M91300 57850 L91300 57850" /> 
</g><path d="M91586 58121 L91414 58121" /> 
<g style = "stroke-linecap:round;" > 
<path d="M91414 58121 L91414 58121" /> 
</g><path d="M91500 58121 L91500 57821" /> 
<path d="M91500 57821 L91471 57864" /> 
<path d="M91471 57864 L91443 57893" /> 
<path d="M91443 57893 L91414 57907" /> 
<g style = "stroke-linecap:round;" > 
<path d="M91414 57907 L91414 57907" /> 
</g><path d="M90350 57550 L90350 58450" /> 
<path d="M90350 58450 L91000 58450" /> 
<path d="M91700 57550 L92350 57550" /> 
<path d="M92350 57550 L92350 58450" /> 
<path d="M92350 58450 L91700 58450" /> 
<path d="M91000 57550 L90350 57550" /> 
</g>
<g style="fill:#000000; fill-opacity:0.0; stroke:#000000; stroke-opacity:1.00; stroke-linecap:round; stroke-linejoin:round; stroke-width:0" 
   transform="translate(0.00 0.00) scale(1.00 1.00)">
<path d="M94508 57950 L94512 57950" /> 
<path d="M94510 57948 L94510 57952" /> 
</g>
<g style="fill:#000000; fill-opacity:0.0; stroke:#000000; stroke-opacity:1.00; stroke-linecap:round; stroke-linejoin:round; stroke-width:50" 
   transform="translate(0.00 0.00) scale(1.00 1.00)">
<path d="M94468 58051 L94385 57932" /> 
<g style = "stroke-linecap:round;" > 
<path d="M94385 57932 L94385 57932" /> 
</g><path d="M94326 58051 L94326 57801" /> 
<path d="M94326 57801 L94421 57801" /> 
<path d="M94421 57801 L94445 57813" /> 
<path d="M94445 57813 L94456 57825" /> 
<path d="M94456 57825 L94468 57849" /> 
<path d="M94468 57849 L94468 57885" /> 
<path d="M94468 57885 L94456 57908" /> 
<path d="M94456 57908 L94445 57920" /> 
<path d="M94445 57920 L94421 57932" /> 
<path d="M94421 57932 L94326 57932" /> 
<g style = "stroke-linecap:round;" > 
<path d="M94326 57932 L94326 57932" /> 
</g><path d="M94706 58051 L94564 58051" /> 
<g style = "stroke-linecap:round;" > 
<path d="M94564 58051 L94564 58051" /> 
</g><path d="M94635 58051 L94635 57801" /> 
<path d="M94635 57801 L94611 57837" /> 
<path d="M94611 57837 L94587 57861" /> 
<path d="M94587 57861 L94564 57873" /> 
<g style = "stroke-linecap:round;" > 
<path d="M94564 57873 L94564 57873" /> 
</g><ellipse cx="95160" cy="57650" rx="50" ry="50"  /> 
<path d="M94710 57650 L95110 57650" /> 
<path d="M95110 57650 L95110 58250" /> 
<path d="M95110 58250 L94710 58250" /> 
<path d="M94310 58250 L93910 58250" /> 
<path d="M93910 58250 L93910 57650" /> 
<path d="M93910 57650 L94310 57650" /> 
</g>
<g style="fill:#000000; fill-opacity:0.0; stroke:#000000; stroke-opacity:1.00; stroke-linecap:round; stroke-linejoin:round; stroke-width:0" 
   transform="translate(0.00 0.00) scale(1.00 1.00)">
<path d="M94528 56470 L94532 56470" /> 
<path d="M94530 56468 L94530 56472" /> 
</g>
<g style="fill:#000000; fill-opacity:0.0; stroke:#000000; stroke-opacity:1.00; stroke-linecap:round; stroke-linejoin:round; stroke-width:50" 
   transform="translate(0.00 0.00) scale(1.00 1.00)">
<path d="M94488 56571 L94405 56452" /> 
<g style = "stroke-linecap:round;" > 
<path d="M94405 56452 L94405 56452" /> 
</g><path d="M94346 56571 L94346 56321" /> 
<path d="M94346 56321 L94441 56321" /> 
<path d="M94441 56321 L94465 56333" /> 
<path d="M94465 56333 L94476 56345" /> 
<path d="M94476 56345 L94488 56369" /> 
<path d="M94488 56369 L94488 56405" /> 
<path d="M94488 56405 L94476 56428" /> 
<path d="M94476 56428 L94465 56440" /> 
<path d="M94465 56440 L94441 56452" /> 
<path d="M94441 56452 L94346 56452" /> 
<g style = "stroke-linecap:round;" > 
<path d="M94346 56452 L94346 56452" /> 
</g><path d="M94572 56321 L94738 56321" /> 
<path d="M94738 56321 L94631 56571" /> 
<g style = "stroke-linecap:round;" > 
<path d="M94631 56571 L94631 56571" /> 
</g><ellipse cx="95180" cy="56170" rx="50" ry="50"  /> 
<path d="M94730 56170 L95130 56170" /> 
<path d="M95130 56170 L95130 56770" /> 
<path d="M95130 56770 L94730 56770" /> 
<path d="M94330 56770 L93930 56770" /> 
<path d="M93930 56770 L93930 56170" /> 
<path d="M93930 56170 L94330 56170" /> 
</g>
<g style="fill:#000000; fill-opacity:0.0; stroke:#000000; stroke-opacity:1.00; stroke-linecap:round; stroke-linejoin:round; stroke-width:0" 
   transform="translate(0.00 0.00) scale(1.00 1.00)">
<path d="M94548 54150 L94552 54150" /> 
<path d="M94550 54148 L94550 54152" /> 
</g>
<g style="fill:#000000; fill-opacity:0.0; stroke:#000000; stroke-opacity:1.00; stroke-linecap:round; stroke-linejoin:round; stroke-width:50" 
   transform="translate(0.00 0.00) scale(1.00 1.00)">
<path d="M94508 54251 L94425 54132" /> 
<g style = "stroke-linecap:round;" > 
<path d="M94425 54132 L94425 54132" /> 
</g><path d="M94366 54251 L94366 54001" /> 
<path d="M94366 54001 L94461 54001" /> 
<path d="M94461 54001 L94485 54013" /> 
<path d="M94485 54013 L94496 54025" /> 
<path d="M94496 54025 L94508 54049" /> 
<path d="M94508 54049 L94508 54085" /> 
<path d="M94508 54085 L94496 54108" /> 
<path d="M94496 54108 L94485 54120" /> 
<path d="M94485 54120 L94461 54132" /> 
<path d="M94461 54132 L94366 54132" /> 
<g style = "stroke-linecap:round;" > 
<path d="M94366 54132 L94366 54132" /> 
</g><path d="M94723 54001 L94675 54001" /> 
<path d="M94675 54001 L94651 54013" /> 
<path d="M94651 54013 L94639 54025" /> 
<path d="M94639 54025 L94616 54061" /> 
<path d="M94616 54061 L94604 54108" /> 
<path d="M94604 54108 L94604 54204" /> 
<path d="M94604 54204 L94616 54227" /> 
<path d="M94616 54227 L94627 54239" /> 
<path d="M94627 54239 L94651 54251" /> 
<path d="M94651 54251 L94699 54251" /> 
<path d="M94699 54251 L94723 54239" /> 
<path d="M94723 54239 L94735 54227" /> 
<path d="M94735 54227 L94746 54204" /> 
<path d="M94746 54204 L94746 54144" /> 
<path d="M94746 54144 L94735 54120" /> 
<path d="M94735 54120 L94723 54108" /> 
<path d="M94723 54108 L94699 54096" /> 
<path d="M94699 54096 L94651 54096" /> 
<path d="M94651 54096 L94627 54108" /> 
<path d="M94627 54108 L94616 54120" /> 
<path d="M94616 54120 L94604 54144" /> 
<g style = "stroke-linecap:round;" > 
<path d="M94604 54144 L94604 54144" /> 
</g><ellipse cx="95200" cy="53850" rx="50" ry="50"  /> 
<path d="M94750 53850 L95150 53850" /> 
<path d="M95150 53850 L95150 54450" /> 
<path d="M95150 54450 L94750 54450" /> 
<path d="M94350 54450 L93950 54450" /> 
<path d="M93950 54450 L93950 53850" /> 
<path d="M93950 53850 L94350 53850" /> 
</g>
<g style="fill:#000000; fill-opacity:0.0; stroke:#000000; stroke-opacity:1.00; stroke-linecap:round; stroke-linejoin:round; stroke-width:0" 
   transform="translate(0.00 0.00) scale(1.00 1.00)">
<path d="M94548 55300 L94552 55300" /> 
<path d="M94550 55298 L94550 55302" /> 
</g>
<g style="fill:#000000; fill-opacity:0.0; stroke:#000000; stroke-opacity:1.00; stroke-linecap:round; stroke-linejoin:round; stroke-width:50" 
   transform="translate(0.00 0.00) scale(1.00 1.00)">
<path d="M94508 55401 L94425 55282" /> 
<g style = "stroke-linecap:round;" > 
<path d="M94425 55282 L94425 55282" /> 
</g><path d="M94366 55401 L94366 55151" /> 
<path d="M94366 55151 L94461 55151" /> 
<path d="M94461 55151 L94485 55163" /> 
<path d="M94485 55163 L94496 55175" /> 
<path d="M94496 55175 L94508 55199" /> 
<path d="M94508 55199 L94508 55235" /> 
<path d="M94508 55235 L94496 55258" /> 
<path d="M94496 55258 L94485 55270" /> 
<path d="M94485 55270 L94461 55282" /> 
<path d="M94461 55282 L94366 55282" /> 
<g style = "stroke-linecap:round;" > 
<path d="M94366 55282 L94366 55282" /> 
</g><path d="M94735 55151 L94616 55151" /> 
<path d="M94616 55151 L94604 55270" /> 
<path d="M94604 55270 L94616 55258" /> 
<path d="M94616 55258 L94639 55246" /> 
<path d="M94639 55246 L94699 55246" /> 
<path d="M94699 55246 L94723 55258" /> 
<path d="M94723 55258 L94735 55270" /> 
<path d="M94735 55270 L94746 55294" /> 
<path d="M94746 55294 L94746 55354" /> 
<path d="M94746 55354 L94735 55377" /> 
<path d="M94735 55377 L94723 55389" /> 
<path d="M94723 55389 L94699 55401" /> 
<path d="M94699 55401 L94639 55401" /> 
<path d="M94639 55401 L94616 55389" /> 
<path d="M94616 55389 L94604 55377" /> 
<g style = "stroke-linecap:round;" > 
<path d="M94604 55377 L94604 55377" /> 
</g><ellipse cx="95200" cy="55000" rx="50" ry="50"  /> 
<path d="M94750 55000 L95150 55000" /> 
<path d="M95150 55000 L95150 55600" /> 
<path d="M95150 55600 L94750 55600" /> 
<path d="M94350 55600 L93950 55600" /> 
<path d="M93950 55600 L93950 55000" /> 
<path d="M93950 55000 L94350 55000" /> 
</g>
<g style="fill:#000000; fill-opacity:0.0; stroke:#000000; stroke-opacity:1.00; stroke-linecap:round; stroke-linejoin:round; stroke-width:0" 
   transform="translate(0.00 0.00) scale(1.00 1.00)">
<path d="M88048 56000 L88052 56000" /> 
<path d="M88050 55998 L88050 56002" /> 
</g>
<g style="fill:#000000; fill-opacity:0.0; stroke:#000000; stroke-opacity:1.00; stroke-linecap:round; stroke-linejoin:round; stroke-width:50" 
   transform="translate(0.00 0.00) scale(1.00 1.00)">
<path d="M88008 56101 L87925 55982" /> 
<g style = "stroke-linecap:round;" > 
<path d="M87925 55982 L87925 55982" /> 
</g><path d="M87866 56101 L87866 55851" /> 
<path d="M87866 55851 L87961 55851" /> 
<path d="M87961 55851 L87985 55863" /> 
<path d="M87985 55863 L87996 55875" /> 
<path d="M87996 55875 L88008 55899" /> 
<path d="M88008 55899 L88008 55935" /> 
<path d="M88008 55935 L87996 55958" /> 
<path d="M87996 55958 L87985 55970" /> 
<path d="M87985 55970 L87961 55982" /> 
<path d="M87961 55982 L87866 55982" /> 
<g style = "stroke-linecap:round;" > 
<path d="M87866 55982 L87866 55982" /> 
</g><path d="M88223 55935 L88223 56101" /> 
<g style = "stroke-linecap:round;" > 
<path d="M88223 56101 L88223 56101" /> 
</g><path d="M88163 55839 L88104 56018" /> 
<path d="M88104 56018 L88258 56018" /> 
<g style = "stroke-linecap:round;" > 
<path d="M88258 56018 L88258 56018" /> 
</g><ellipse cx="87400" cy="56300" rx="50" ry="50"  /> 
<path d="M87850 56300 L87450 56300" /> 
<path d="M87450 56300 L87450 55700" /> 
<path d="M87450 55700 L87850 55700" /> 
<path d="M88250 55700 L88650 55700" /> 
<path d="M88650 55700 L88650 56300" /> 
<path d="M88650 56300 L88250 56300" /> 
</g>
<g style="fill:#000000; fill-opacity:0.0; stroke:#000000; stroke-opacity:1.00; stroke-linecap:round; stroke-linejoin:round; stroke-width:0" 
   transform="translate(0.00 0.00) scale(1.00 1.00)">
<path d="M88048 54850 L88052 54850" /> 
<path d="M88050 54848 L88050 54852" /> 
</g>
<g style="fill:#000000; fill-opacity:0.0; stroke:#000000; stroke-opacity:1.00; stroke-linecap:round; stroke-linejoin:round; stroke-width:50" 
   transform="translate(0.00 0.00) scale(1.00 1.00)">
<path d="M88008 54951 L87925 54832" /> 
<g style = "stroke-linecap:round;" > 
<path d="M87925 54832 L87925 54832" /> 
</g><path d="M87866 54951 L87866 54701" /> 
<path d="M87866 54701 L87961 54701" /> 
<path d="M87961 54701 L87985 54713" /> 
<path d="M87985 54713 L87996 54725" /> 
<path d="M87996 54725 L88008 54749" /> 
<path d="M88008 54749 L88008 54785" /> 
<path d="M88008 54785 L87996 54808" /> 
<path d="M87996 54808 L87985 54820" /> 
<path d="M87985 54820 L87961 54832" /> 
<path d="M87961 54832 L87866 54832" /> 
<g style = "stroke-linecap:round;" > 
<path d="M87866 54832 L87866 54832" /> 
</g><path d="M88092 54701 L88246 54701" /> 
<path d="M88246 54701 L88163 54796" /> 
<path d="M88163 54796 L88199 54796" /> 
<path d="M88199 54796 L88223 54808" /> 
<path d="M88223 54808 L88235 54820" /> 
<path d="M88235 54820 L88246 54844" /> 
<path d="M88246 54844 L88246 54904" /> 
<path d="M88246 54904 L88235 54927" /> 
<path d="M88235 54927 L88223 54939" /> 
<path d="M88223 54939 L88199 54951" /> 
<path d="M88199 54951 L88127 54951" /> 
<path d="M88127 54951 L88104 54939" /> 
<path d="M88104 54939 L88092 54927" /> 
<g style = "stroke-linecap:round;" > 
<path d="M88092 54927 L88092 54927" /> 
</g><ellipse cx="87400" cy="55150" rx="50" ry="50"  /> 
<path d="M87850 55150 L87450 55150" /> 
<path d="M87450 55150 L87450 54550" /> 
<path d="M87450 54550 L87850 54550" /> 
<path d="M88250 54550 L88650 54550" /> 
<path d="M88650 54550 L88650 55150" /> 
<path d="M88650 55150 L88250 55150" /> 
</g>
<g style="fill:#000000; fill-opacity:0.0; stroke:#000000; stroke-opacity:1.00; stroke-linecap:round; stroke-linejoin:round; stroke-width:0" 
   transform="translate(0.00 0.00) scale(1.00 1.00)">
<path d="M88048 53760 L88052 53760" /> 
<path d="M88050 53758 L88050 53762" /> 
</g>
<g style="fill:#000000; fill-opacity:0.0; stroke:#000000; stroke-opacity:1.00; stroke-linecap:round; stroke-linejoin:round; stroke-width:50" 
   transform="translate(0.00 0.00) scale(1.00 1.00)">
<path d="M88008 53861 L87925 53742" /> 
<g style = "stroke-linecap:round;" > 
<path d="M87925 53742 L87925 53742" /> 
</g><path d="M87866 53861 L87866 53611" /> 
<path d="M87866 53611 L87961 53611" /> 
<path d="M87961 53611 L87985 53623" /> 
<path d="M87985 53623 L87996 53635" /> 
<path d="M87996 53635 L88008 53659" /> 
<path d="M88008 53659 L88008 53695" /> 
<path d="M88008 53695 L87996 53718" /> 
<path d="M87996 53718 L87985 53730" /> 
<path d="M87985 53730 L87961 53742" /> 
<path d="M87961 53742 L87866 53742" /> 
<g style = "stroke-linecap:round;" > 
<path d="M87866 53742 L87866 53742" /> 
</g><path d="M88104 53635 L88116 53623" /> 
<path d="M88116 53623 L88139 53611" /> 
<path d="M88139 53611 L88199 53611" /> 
<path d="M88199 53611 L88223 53623" /> 
<path d="M88223 53623 L88235 53635" /> 
<path d="M88235 53635 L88246 53659" /> 
<path d="M88246 53659 L88246 53683" /> 
<path d="M88246 53683 L88235 53718" /> 
<path d="M88235 53718 L88092 53861" /> 
<path d="M88092 53861 L88246 53861" /> 
<g style = "stroke-linecap:round;" > 
<path d="M88246 53861 L88246 53861" /> 
</g><ellipse cx="87400" cy="54060" rx="50" ry="50"  /> 
<path d="M87850 54060 L87450 54060" /> 
<path d="M87450 54060 L87450 53460" /> 
<path d="M87450 53460 L87850 53460" /> 
<path d="M88250 53460 L88650 53460" /> 
<path d="M88650 53460 L88650 54060" /> 
<path d="M88650 54060 L88250 54060" /> 
</g>
<g style="fill:#000000; fill-opacity:0.0; stroke:#000000; stroke-opacity:1.00; stroke-linecap:round; stroke-linejoin:round; stroke-width:60" 
   transform="translate(0.00 0.00) scale(1.00 1.00)">
<ellipse cx="92340" cy="50870" rx="750" ry="750"  /> 
<ellipse cx="90340" cy="50870" rx="750" ry="750"  /> 
<path d="M95090 50120 L95090 51620" /> 
<path d="M95090 51620 L93590 51620" /> 
<path d="M93590 51620 L93590 50120" /> 
<path d="M95090 50120 L93590 50120" /> 
<ellipse cx="88340" cy="50870" rx="750" ry="750"  /> 
</g>
<g style="fill:#000000; fill-opacity:0.0; stroke:#000000; stroke-opacity:1.00; stroke-linecap:round; stroke-linejoin:round; stroke-width:0" 
   transform="translate(0.00 0.00) scale(1.00 1.00)">
<path d="M91338 53370 L91342 53370" /> 
<path d="M91340 53368 L91340 53372" /> 
</g>
<g style="fill:#000000; fill-opacity:0.0; stroke:#000000; stroke-opacity:1.00; stroke-linecap:round; stroke-linejoin:round; stroke-width:120" 
   transform="translate(0.00 0.00) scale(1.00 1.00)">
<path d="M90876 53787 L90876 52757" /> 
<path d="M90876 52757 L91115 52757" /> 
<path d="M91115 52757 L91175 52806" /> 
<path d="M91175 52806 L91205 52855" /> 
<path d="M91205 52855 L91235 52953" /> 
<path d="M91235 52953 L91235 53100" /> 
<path d="M91235 53100 L91205 53198" /> 
<path d="M91205 53198 L91175 53247" /> 
<path d="M91175 53247 L91115 53296" /> 
<path d="M91115 53296 L90876 53296" /> 
<g style = "stroke-linecap:round;" > 
<path d="M90876 53296 L90876 53296" /> 
</g><path d="M91834 53787 L91475 53787" /> 
<g style = "stroke-linecap:round;" > 
<path d="M91475 53787 L91475 53787" /> 
</g><path d="M91655 53787 L91655 52757" /> 
<path d="M91655 52757 L91595 52904" /> 
<path d="M91595 52904 L91535 53002" /> 
<path d="M91535 53002 L91475 53051" /> 
<g style = "stroke-linecap:round;" > 
<path d="M91475 53051 L91475 53051" /> 
</g></g>
<g style="fill:#000000; fill-opacity:0.0; stroke:#000000; stroke-opacity:1.00; stroke-linecap:round; stroke-linejoin:round; stroke-width:0" 
   transform="translate(0.00 0.00) scale(1.00 1.00)">
<path d="M91338 48870 L91342 48870" /> 
<path d="M91340 48868 L91340 48872" /> 
</g>
<g style="fill:#000000; fill-opacity:0.0; stroke:#000000; stroke-opacity:1.00; stroke-linecap:round; stroke-linejoin:round; stroke-width:120" 
   transform="translate(0.00 0.00) scale(1.00 1.00)">
<path d="M90069 49056 L90040 49084" /> 
<path d="M90040 49084 L89954 49113" /> 
<path d="M89954 49113 L89897 49113" /> 
<path d="M89897 49113 L89812 49084" /> 
<path d="M89812 49084 L89754 49027" /> 
<path d="M89754 49027 L89726 48970" /> 
<path d="M89726 48970 L89697 48856" /> 
<path d="M89697 48856 L89697 48770" /> 
<path d="M89697 48770 L89726 48656" /> 
<path d="M89726 48656 L89754 48599" /> 
<path d="M89754 48599 L89812 48541" /> 
<path d="M89812 48541 L89897 48513" /> 
<path d="M89897 48513 L89954 48513" /> 
<path d="M89954 48513 L90040 48541" /> 
<path d="M90040 48541 L90069 48570" /> 
<g style = "stroke-linecap:round;" > 
<path d="M90069 48570 L90069 48570" /> 
</g><path d="M90440 48513 L90554 48513" /> 
<path d="M90554 48513 L90612 48541" /> 
<path d="M90612 48541 L90669 48599" /> 
<path d="M90669 48599 L90697 48713" /> 
<path d="M90697 48713 L90697 48913" /> 
<path d="M90697 48913 L90669 49027" /> 
<path d="M90669 49027 L90612 49084" /> 
<path d="M90612 49084 L90554 49113" /> 
<path d="M90554 49113 L90440 49113" /> 
<path d="M90440 49113 L90383 49084" /> 
<path d="M90383 49084 L90326 49027" /> 
<path d="M90326 49027 L90297 48913" /> 
<path d="M90297 48913 L90297 48713" /> 
<path d="M90297 48713 L90326 48599" /> 
<path d="M90326 48599 L90383 48541" /> 
<path d="M90383 48541 L90440 48513" /> 
<path d="M90955 49113 L90955 48513" /> 
<path d="M90955 48513 L91298 49113" /> 
<path d="M91298 49113 L91298 48513" /> 
<g style = "stroke-linecap:round;" > 
<path d="M91298 48513 L91298 48513" /> 
</g><path d="M91584 49113 L91584 48513" /> 
<path d="M91584 48513 L91927 49113" /> 
<path d="M91927 49113 L91927 48513" /> 
<g style = "stroke-linecap:round;" > 
<path d="M91927 48513 L91927 48513" /> 
</g><path d="M92070 49170 L92527 49170" /> 
<g style = "stroke-linecap:round;" > 
<path d="M92527 49170 L92527 49170" /> 
</g><path d="M92927 48713 L92927 49113" /> 
<g style = "stroke-linecap:round;" > 
<path d="M92927 49113 L92927 49113" /> 
</g><path d="M92784 48484 L92641 48913" /> 
<path d="M92641 48913 L93013 48913" /> 
<g style = "stroke-linecap:round;" > 
<path d="M93013 48913 L93013 48913" /> 
</g><path d="M95340 52370 L95340 49370" /> 
<path d="M87340 49370 L87340 52370" /> 
<path d="M87340 49870 L95340 49870" /> 
<path d="M95340 52370 L87340 52370" /> 
<path d="M95340 49370 L87340 49370" /> 
</g> 
</svg> 
