<?xml version="1.0" standalone="no"?>
<!DOCTYPE svg PUBLIC "-//W3C//DTD SVG 20010904//EN" 
"http://www.w3.org/TR/2001/REC-SVG-20010904/DTD/svg10.dtd"> 
<svg xmlns="http://www.w3.org/2000/svg" xmlns:xlink="http://www.w3.org/1999/xlink" 
    width="29.72cm" height="21.00cm" viewBox="0 0 117000 82670 "> 
<title>SVG Picture created as DomeLight-brd.svg </title>
<desc>Picture generated by wxSVG v0100 </desc>
<g style="fill:black; stroke:black; stroke-width:1">
</g>
<g style="fill:#000000; fill-opacity:0.0; stroke:#000000; stroke-opacity:1.00; stroke-linecap:round; stroke-linejoin:round; stroke-width:150" 
   transform="translate(0.00 0.00) scale(1.00 1.00)">
<path d="M86250 48910 L87480 48910" /> 
<path d="M86250 64200 L86250 48910" /> 
<path d="M96350 64200 L86250 64200" /> 
<path d="M96350 48900 L96350 64200" /> 
<path d="M86750 48900 L96350 48900" /> 
</g>
<g style="fill:#000000; fill-opacity:0.0; stroke:#000000; stroke-opacity:1.00; stroke-linecap:round; stroke-linejoin:round; stroke-width:200" 
   transform="translate(0.00 0.00) scale(1.00 1.00)">
<path d="M92000 58000 L92000 56615" /> 
<path d="M91856 54290 L92500 54290" /> 
<path d="M91784 54362 L91856 54290" /> 
<path d="M91784 56399 L91784 54362" /> 
<path d="M92000 56615 L91784 56399" /> 
<path d="M94135 57950 L92050 57950" /> 
<path d="M92050 57950 L92000 58000" /> 
<path d="M94374 59619 L94374 59240" /> 
<path d="M94135 59001 L94135 57950" /> 
<path d="M94374 59240 L94135 59001" /> 
<path d="M92500 54130 L94340 52290" /> 
<path d="M92500 54290 L92500 54130" /> 
<path d="M94340 52290 L94340 50870" /> 
<path d="M90000 54290 L89570 54290" /> 
<path d="M88425 53760 L89470 53760" /> 
<path d="M89470 53760 L90000 54290" /> 
<path d="M87675 53760 L87675 51535" /> 
<path d="M87675 51535 L88340 50870" /> 
<path d="M87675 56000 L87675 54850" /> 
<path d="M87675 54850 L87675 53760" /> 
<path d="M87545 62270 L87545 61695" /> 
<path d="M92340 49770 L92340 50870" /> 
<path d="M91894 49324 L92340 49770" /> 
<path d="M87406 49324 L91894 49324" /> 
<path d="M86966 49764 L87406 49324" /> 
<path d="M86966 61116 L86966 49764" /> 
<path d="M87545 61695 L86966 61116" /> 
<path d="M90000 55290 L89135 55290" /> 
<path d="M89135 55290 L88425 56000" /> 
<path d="M90000 54790 L89760 54790" /> 
<path d="M89760 54790 L89700 54850" /> 
<path d="M88425 54850 L89700 54850" /> 
<path d="M92500 54790 L93535 54790" /> 
<path d="M93535 54790 L94175 54150" /> 
<path d="M94175 55300 L92510 55300" /> 
<path d="M92510 55300 L92500 55290" /> 
<path d="M92500 55790 L93475 55790" /> 
<path d="M93475 55790 L94155 56470" /> 
<path d="M90000 55790 L89342 55790" /> 
<path d="M89342 55790 L89339 55787" /> 
<path d="M89345 62270 L89345 61575" /> 
<path d="M90700 60220 L90700 58000" /> 
<path d="M89345 61575 L90700 60220" /> 
<path d="M90700 58000 L90700 57715" /> 
<path d="M90000 57015 L90000 55790" /> 
<path d="M90700 57715 L90000 57015" /> 
<path d="M93374 59994 L92224 59994" /> 
<path d="M90340 52434 L90340 50870" /> 
<path d="M91200 53294 L90340 52434" /> 
<path d="M91200 56648 L91200 53294" /> 
<path d="M91350 56798 L91200 56648" /> 
<path d="M91350 59120 L91350 56798" /> 
<path d="M92224 59994 L91350 59120" /> 
<path d="M94374 60369 L94731 60369" /> 
<path d="M95010 60090 L95010 57950" /> 
<path d="M94731 60369 L95010 60090" /> 
<path d="M94885 57950 L94885 56490" /> 
<path d="M94925 56450 L94925 54150" /> 
<path d="M94885 56490 L94925 56450" /> 
</g>
<g style="fill:#000000; fill-opacity:0.0; stroke:#000000; stroke-opacity:1.00; stroke-linecap:round; stroke-linejoin:round; stroke-width:100" 
   transform="translate(0.00 0.00) scale(1.00 1.00)">
<path d="M96025 63875 L96025 63875" /> 
<path d="M95360 63875 L96025 63875" /> 
<path d="M95360 60090 L95360 63875" /> 
<path d="M95360 57950 L95360 60090" /> 
<path d="M95333 57816 L95360 57950" /> 
<path d="M95309 57780 L95333 57816" /> 
<path d="M95309 57626 L95309 57780" /> 
<path d="M95271 57534 L95309 57626" /> 
<path d="M95235 57498 L95271 57534" /> 
<path d="M95235 56942 L95235 57498" /> 
<path d="M95291 56886 L95235 56942" /> 
<path d="M95329 56795 L95291 56886" /> 
<path d="M95329 56696 L95329 56795" /> 
<path d="M95329 56146 L95329 56696" /> 
<path d="M95291 56054 L95329 56146" /> 
<path d="M95275 56038 L95291 56054" /> 
<path d="M95275 55752 L95275 56038" /> 
<path d="M95311 55716 L95275 55752" /> 
<path d="M95349 55625 L95311 55716" /> 
<path d="M95349 55526 L95349 55625" /> 
<path d="M95349 54976 L95349 55526" /> 
<path d="M95311 54884 L95349 54976" /> 
<path d="M95275 54848 L95311 54884" /> 
<path d="M95275 54602 L95275 54848" /> 
<path d="M95311 54566 L95275 54602" /> 
<path d="M95349 54475 L95311 54566" /> 
<path d="M95349 54376 L95349 54475" /> 
<path d="M95349 53826 L95349 54376" /> 
<path d="M95340 53804 L95349 53826" /> 
<path d="M95340 50982 L95340 53804" /> 
<path d="M95340 50758 L95340 50982" /> 
<path d="M95339 50169 L95340 50758" /> 
<path d="M95339 50070 L95339 50169" /> 
<path d="M95301 49979 L95339 50070" /> 
<path d="M95231 49909 L95301 49979" /> 
<path d="M95139 49871 L95231 49909" /> 
<path d="M94452 49870 L95139 49871" /> 
<path d="M94390 49932 L94452 49870" /> 
<path d="M94390 50820 L94390 49932" /> 
<path d="M95278 50820 L94390 50820" /> 
<path d="M95340 50758 L95278 50820" /> 
<path d="M95340 50982 L95340 50758" /> 
<path d="M95278 50920 L95340 50982" /> 
<path d="M94390 50920 L95278 50920" /> 
<path d="M94390 51808 L94390 50920" /> 
<path d="M94452 51870 L94390 51808" /> 
<path d="M95139 51869 L94452 51870" /> 
<path d="M95231 51831 L95139 51869" /> 
<path d="M95301 51761 L95231 51831" /> 
<path d="M95339 51670 L95301 51761" /> 
<path d="M95339 51571 L95339 51670" /> 
<path d="M95340 50982 L95339 51571" /> 
<path d="M95340 53804 L95340 50982" /> 
<path d="M95311 53734 L95340 53804" /> 
<path d="M95241 53664 L95311 53734" /> 
<path d="M95150 53626 L95241 53664" /> 
<path d="M95051 53626 L95150 53626" /> 
<path d="M94701 53626 L95051 53626" /> 
<path d="M94609 53664 L94701 53626" /> 
<path d="M94550 53723 L94609 53664" /> 
<path d="M94491 53664 L94550 53723" /> 
<path d="M94400 53626 L94491 53664" /> 
<path d="M94301 53626 L94400 53626" /> 
<path d="M93951 53626 L94301 53626" /> 
<path d="M93859 53664 L93951 53626" /> 
<path d="M93789 53734 L93859 53664" /> 
<path d="M93751 53825 L93789 53734" /> 
<path d="M93751 53924 L93751 53825" /> 
<path d="M93751 54079 L93751 53924" /> 
<path d="M93390 54440 L93751 54079" /> 
<path d="M92973 54440 L93390 54440" /> 
<path d="M92974 54439 L92973 54440" /> 
<path d="M92975 54402 L92974 54439" /> 
<path d="M92975 54178 L92975 54402" /> 
<path d="M92974 54141 L92975 54178" /> 
<path d="M92936 54049 L92974 54141" /> 
<path d="M92866 53979 L92936 54049" /> 
<path d="M92775 53941 L92866 53979" /> 
<path d="M92676 53941 L92775 53941" /> 
<path d="M92612 53940 L92676 53941" /> 
<path d="M92550 54002 L92612 53940" /> 
<path d="M92550 54240 L92550 54002" /> 
<path d="M92913 54240 L92550 54240" /> 
<path d="M92975 54178 L92913 54240" /> 
<path d="M92975 54402 L92975 54178" /> 
<path d="M92913 54340 L92975 54402" /> 
<path d="M92600 54340 L92913 54340" /> 
<path d="M92550 54340 L92600 54340" /> 
<path d="M92450 54340 L92550 54340" /> 
<path d="M92450 54240 L92450 54340" /> 
<path d="M92450 54002 L92450 54240" /> 
<path d="M92388 53940 L92450 54002" /> 
<path d="M92324 53941 L92388 53940" /> 
<path d="M92225 53941 L92324 53941" /> 
<path d="M92134 53979 L92225 53941" /> 
<path d="M92064 54049 L92134 53979" /> 
<path d="M92026 54141 L92064 54049" /> 
<path d="M92025 54178 L92026 54141" /> 
<path d="M92087 54240 L92025 54178" /> 
<path d="M92450 54240 L92087 54240" /> 
<path d="M92450 54340 L92450 54240" /> 
<path d="M92400 54340 L92450 54340" /> 
<path d="M92087 54340 L92400 54340" /> 
<path d="M92025 54402 L92087 54340" /> 
<path d="M92026 54439 L92025 54402" /> 
<path d="M92064 54531 L92026 54439" /> 
<path d="M92073 54540 L92064 54531" /> 
<path d="M92064 54549 L92073 54540" /> 
<path d="M92026 54640 L92064 54549" /> 
<path d="M92026 54739 L92026 54640" /> 
<path d="M92026 54939 L92026 54739" /> 
<path d="M92064 55031 L92026 54939" /> 
<path d="M92073 55040 L92064 55031" /> 
<path d="M92064 55049 L92073 55040" /> 
<path d="M92026 55140 L92064 55049" /> 
<path d="M92026 55239 L92026 55140" /> 
<path d="M92026 55439 L92026 55239" /> 
<path d="M92064 55531 L92026 55439" /> 
<path d="M92073 55540 L92064 55531" /> 
<path d="M92064 55549 L92073 55540" /> 
<path d="M92026 55640 L92064 55549" /> 
<path d="M92026 55739 L92026 55640" /> 
<path d="M92026 55939 L92026 55739" /> 
<path d="M92064 56031 L92026 55939" /> 
<path d="M92134 56101 L92064 56031" /> 
<path d="M92225 56139 L92134 56101" /> 
<path d="M92324 56139 L92225 56139" /> 
<path d="M92495 56139 L92324 56139" /> 
<path d="M92500 56140 L92495 56139" /> 
<path d="M93330 56140 L92500 56140" /> 
<path d="M93731 56540 L93330 56140" /> 
<path d="M93731 56794 L93731 56540" /> 
<path d="M93769 56886 L93731 56794" /> 
<path d="M93839 56956 L93769 56886" /> 
<path d="M93930 56994 L93839 56956" /> 
<path d="M94029 56994 L93930 56994" /> 
<path d="M94379 56994 L94029 56994" /> 
<path d="M94471 56956 L94379 56994" /> 
<path d="M94530 56897 L94471 56956" /> 
<path d="M94535 56902 L94530 56897" /> 
<path d="M94535 57498 L94535 56902" /> 
<path d="M94510 57523 L94535 57498" /> 
<path d="M94451 57464 L94510 57523" /> 
<path d="M94359 57426 L94451 57464" /> 
<path d="M94247 57425 L94359 57426" /> 
<path d="M94185 57487 L94247 57425" /> 
<path d="M94185 57850 L94185 57487" /> 
<path d="M94185 57900 L94185 57850" /> 
<path d="M94185 58000 L94185 57900" /> 
<path d="M94185 58050 L94185 58000" /> 
<path d="M94185 58413 L94185 58050" /> 
<path d="M94247 58475 L94185 58413" /> 
<path d="M94359 58474 L94247 58475" /> 
<path d="M94451 58436 L94359 58474" /> 
<path d="M94510 58377 L94451 58436" /> 
<path d="M94569 58436 L94510 58377" /> 
<path d="M94660 58474 L94569 58436" /> 
<path d="M94660 59248 L94660 58474" /> 
<path d="M94621 59232 L94660 59248" /> 
<path d="M94522 59232 L94621 59232" /> 
<path d="M94486 59231 L94522 59232" /> 
<path d="M94424 59293 L94486 59231" /> 
<path d="M94424 59519 L94424 59293" /> 
<path d="M94424 59569 L94424 59519" /> 
<path d="M94424 59669 L94424 59569" /> 
<path d="M94324 59669 L94424 59669" /> 
<path d="M94324 59569 L94324 59669" /> 
<path d="M94324 59293 L94324 59569" /> 
<path d="M94262 59231 L94324 59293" /> 
<path d="M94226 59232 L94262 59231" /> 
<path d="M94127 59232 L94226 59232" /> 
<path d="M94085 59249 L94127 59232" /> 
<path d="M94085 58413 L94085 59249" /> 
<path d="M94085 58000 L94085 58413" /> 
<path d="M94085 57900 L94085 58000" /> 
<path d="M94085 57487 L94085 57900" /> 
<path d="M94023 57425 L94085 57487" /> 
<path d="M93911 57426 L94023 57425" /> 
<path d="M93819 57464 L93911 57426" /> 
<path d="M93749 57534 L93819 57464" /> 
<path d="M93711 57625 L93749 57534" /> 
<path d="M93711 57724 L93711 57625" /> 
<path d="M93710 57838 L93711 57724" /> 
<path d="M93772 57900 L93710 57838" /> 
<path d="M94085 57900 L93772 57900" /> 
<path d="M94085 58000 L94085 57900" /> 
<path d="M93772 58000 L94085 58000" /> 
<path d="M93710 58062 L93772 58000" /> 
<path d="M93711 58176 L93710 58062" /> 
<path d="M93711 58275 L93711 58176" /> 
<path d="M93749 58366 L93711 58275" /> 
<path d="M93819 58436 L93749 58366" /> 
<path d="M93911 58474 L93819 58436" /> 
<path d="M94023 58475 L93911 58474" /> 
<path d="M94085 58413 L94023 58475" /> 
<path d="M94085 59249 L94085 58413" /> 
<path d="M94036 59270 L94085 59249" /> 
<path d="M93966 59340 L94036 59270" /> 
<path d="M93928 59432 L93966 59340" /> 
<path d="M93927 59507 L93928 59432" /> 
<path d="M93989 59569 L93927 59507" /> 
<path d="M94324 59569 L93989 59569" /> 
<path d="M94324 59669 L94324 59569" /> 
<path d="M94274 59669 L94324 59669" /> 
<path d="M93989 59669 L94274 59669" /> 
<path d="M93927 59731 L93989 59669" /> 
<path d="M93928 59806 L93927 59731" /> 
<path d="M93966 59898 L93928 59806" /> 
<path d="M94036 59968 L93966 59898" /> 
<path d="M94098 59994 L94036 59968" /> 
<path d="M94036 60020 L94098 59994" /> 
<path d="M93966 60090 L94036 60020" /> 
<path d="M93928 60181 L93966 60090" /> 
<path d="M93928 60280 L93928 60181" /> 
<path d="M93928 60556 L93928 60280" /> 
<path d="M93966 60648 L93928 60556" /> 
<path d="M94036 60718 L93966 60648" /> 
<path d="M94127 60756 L94036 60718" /> 
<path d="M94226 60756 L94127 60756" /> 
<path d="M94620 60756 L94226 60756" /> 
<path d="M94709 60719 L94620 60756" /> 
<path d="M94731 60719 L94709 60719" /> 
<path d="M94731 60718 L94731 60719" /> 
<path d="M94865 60692 L94731 60718" /> 
<path d="M94978 60616 L94865 60692" /> 
<path d="M95257 60338 L94978 60616" /> 
<path d="M95257 60337 L95257 60338" /> 
<path d="M95333 60224 L95257 60337" /> 
<path d="M95359 60090 L95333 60224" /> 
<path d="M95360 60090 L95359 60090" /> 
<path d="M95360 63875 L95360 60090" /> 
<path d="M88895 63875 L95360 63875" /> 
<path d="M88895 62382 L88895 63875" /> 
<path d="M88895 62158 L88895 62382" /> 
<path d="M88894 61919 L88895 62158" /> 
<path d="M88894 61820 L88894 61919" /> 
<path d="M88856 61729 L88894 61820" /> 
<path d="M88786 61659 L88856 61729" /> 
<path d="M88694 61621 L88786 61659" /> 
<path d="M88557 61620 L88694 61621" /> 
<path d="M88495 61682 L88557 61620" /> 
<path d="M88495 62220 L88495 61682" /> 
<path d="M88833 62220 L88495 62220" /> 
<path d="M88895 62158 L88833 62220" /> 
<path d="M88895 62382 L88895 62158" /> 
<path d="M88833 62320 L88895 62382" /> 
<path d="M88495 62320 L88833 62320" /> 
<path d="M88495 62858 L88495 62320" /> 
<path d="M88557 62920 L88495 62858" /> 
<path d="M88694 62919 L88557 62920" /> 
<path d="M88786 62881 L88694 62919" /> 
<path d="M88856 62811 L88786 62881" /> 
<path d="M88894 62720 L88856 62811" /> 
<path d="M88894 62621 L88894 62720" /> 
<path d="M88895 62382 L88894 62621" /> 
<path d="M88895 63875 L88895 62382" /> 
<path d="M88395 63875 L88895 63875" /> 
<path d="M88395 62858 L88395 63875" /> 
<path d="M88395 62320 L88395 62858" /> 
<path d="M88395 62220 L88395 62320" /> 
<path d="M88395 61682 L88395 62220" /> 
<path d="M88395 60258 L88395 61682" /> 
<path d="M88395 59720 L88395 60258" /> 
<path d="M88395 59620 L88395 59720" /> 
<path d="M88395 59082 L88395 59620" /> 
<path d="M88333 59020 L88395 59082" /> 
<path d="M87676 59021 L88333 59020" /> 
<path d="M87584 59059 L87676 59021" /> 
<path d="M87514 59129 L87584 59059" /> 
<path d="M87476 59220 L87514 59129" /> 
<path d="M87476 59319 L87476 59220" /> 
<path d="M87475 59558 L87476 59319" /> 
<path d="M87537 59620 L87475 59558" /> 
<path d="M88395 59620 L87537 59620" /> 
<path d="M88395 59720 L88395 59620" /> 
<path d="M87537 59720 L88395 59720" /> 
<path d="M87475 59782 L87537 59720" /> 
<path d="M87476 60021 L87475 59782" /> 
<path d="M87476 60120 L87476 60021" /> 
<path d="M87514 60211 L87476 60120" /> 
<path d="M87584 60281 L87514 60211" /> 
<path d="M87676 60319 L87584 60281" /> 
<path d="M88333 60320 L87676 60319" /> 
<path d="M88395 60258 L88333 60320" /> 
<path d="M88395 61682 L88395 60258" /> 
<path d="M88333 61620 L88395 61682" /> 
<path d="M88196 61621 L88333 61620" /> 
<path d="M88104 61659 L88196 61621" /> 
<path d="M88034 61729 L88104 61659" /> 
<path d="M87996 61820 L88034 61729" /> 
<path d="M87996 61919 L87996 61820" /> 
<path d="M87995 62158 L87996 61919" /> 
<path d="M88057 62220 L87995 62158" /> 
<path d="M88395 62220 L88057 62220" /> 
<path d="M88395 62320 L88395 62220" /> 
<path d="M88057 62320 L88395 62320" /> 
<path d="M87995 62382 L88057 62320" /> 
<path d="M87996 62621 L87995 62382" /> 
<path d="M87996 62720 L87996 62621" /> 
<path d="M88034 62811 L87996 62720" /> 
<path d="M88104 62881 L88034 62811" /> 
<path d="M88196 62919 L88104 62881" /> 
<path d="M88333 62920 L88196 62919" /> 
<path d="M88395 62858 L88333 62920" /> 
<path d="M88395 63875 L88395 62858" /> 
<path d="M86575 63875 L88395 63875" /> 
<path d="M86575 49235 L86575 63875" /> 
<path d="M87000 49235 L86575 49235" /> 
<path d="M86719 49517 L87000 49235" /> 
<path d="M86643 49630 L86719 49517" /> 
<path d="M86616 49764 L86643 49630" /> 
<path d="M86616 61116 L86616 49764" /> 
<path d="M86643 61250 L86616 61116" /> 
<path d="M86719 61363 L86643 61250" /> 
<path d="M87119 61764 L86719 61363" /> 
<path d="M87096 61820 L87119 61764" /> 
<path d="M87096 61919 L87096 61820" /> 
<path d="M87096 62719 L87096 61919" /> 
<path d="M87134 62811 L87096 62719" /> 
<path d="M87204 62881 L87134 62811" /> 
<path d="M87295 62919 L87204 62881" /> 
<path d="M87394 62919 L87295 62919" /> 
<path d="M87794 62919 L87394 62919" /> 
<path d="M87886 62881 L87794 62919" /> 
<path d="M87956 62811 L87886 62881" /> 
<path d="M87994 62720 L87956 62811" /> 
<path d="M87994 62621 L87994 62720" /> 
<path d="M87994 61821 L87994 62621" /> 
<path d="M87956 61729 L87994 61821" /> 
<path d="M87888 61661 L87956 61729" /> 
<path d="M87887 61660 L87888 61661" /> 
<path d="M87868 61561 L87887 61660" /> 
<path d="M87792 61448 L87868 61561" /> 
<path d="M87792 61447 L87792 61448" /> 
<path d="M87316 60971 L87792 61447" /> 
<path d="M87316 56443 L87316 60971" /> 
<path d="M87359 56486 L87316 56443" /> 
<path d="M87450 56524 L87359 56486" /> 
<path d="M87549 56524 L87450 56524" /> 
<path d="M87899 56524 L87549 56524" /> 
<path d="M87991 56486 L87899 56524" /> 
<path d="M88050 56427 L87991 56486" /> 
<path d="M88109 56486 L88050 56427" /> 
<path d="M88200 56524 L88109 56486" /> 
<path d="M88299 56524 L88200 56524" /> 
<path d="M88649 56524 L88299 56524" /> 
<path d="M88741 56486 L88649 56524" /> 
<path d="M88811 56416 L88741 56486" /> 
<path d="M88849 56325 L88811 56416" /> 
<path d="M88849 56226 L88849 56325" /> 
<path d="M88849 56070 L88849 56226" /> 
<path d="M89013 55906 L88849 56070" /> 
<path d="M89016 55921 L89013 55906" /> 
<path d="M89092 56034 L89016 55921" /> 
<path d="M89094 56037 L89092 56034" /> 
<path d="M89095 56037 L89094 56037" /> 
<path d="M89208 56113 L89095 56037" /> 
<path d="M89342 56140 L89208 56113" /> 
<path d="M89650 56140 L89342 56140" /> 
<path d="M89650 57015 L89650 56140" /> 
<path d="M89677 57149 L89650 57015" /> 
<path d="M89753 57262 L89677 57149" /> 
<path d="M90151 57660 L89753 57262" /> 
<path d="M90151 58449 L90151 57660" /> 
<path d="M90189 58541 L90151 58449" /> 
<path d="M90259 58611 L90189 58541" /> 
<path d="M90350 58649 L90259 58611" /> 
<path d="M90350 60075 L90350 58649" /> 
<path d="M89415 61010 L90350 60075" /> 
<path d="M89415 59782 L89415 61010" /> 
<path d="M89415 59558 L89415 59782" /> 
<path d="M89414 59319 L89415 59558" /> 
<path d="M89414 59220 L89414 59319" /> 
<path d="M89376 59129 L89414 59220" /> 
<path d="M89306 59059 L89376 59129" /> 
<path d="M89214 59021 L89306 59059" /> 
<path d="M88557 59020 L89214 59021" /> 
<path d="M88495 59082 L88557 59020" /> 
<path d="M88495 59620 L88495 59082" /> 
<path d="M89353 59620 L88495 59620" /> 
<path d="M89415 59558 L89353 59620" /> 
<path d="M89415 59782 L89415 59558" /> 
<path d="M89353 59720 L89415 59782" /> 
<path d="M88495 59720 L89353 59720" /> 
<path d="M88495 60258 L88495 59720" /> 
<path d="M88557 60320 L88495 60258" /> 
<path d="M89214 60319 L88557 60320" /> 
<path d="M89306 60281 L89214 60319" /> 
<path d="M89376 60211 L89306 60281" /> 
<path d="M89414 60120 L89376 60211" /> 
<path d="M89414 60021 L89414 60120" /> 
<path d="M89415 59782 L89414 60021" /> 
<path d="M89415 61010 L89415 59782" /> 
<path d="M89098 61328 L89415 61010" /> 
<path d="M89022 61441 L89098 61328" /> 
<path d="M88995 61575 L89022 61441" /> 
<path d="M88995 61668 L88995 61575" /> 
<path d="M88934 61729 L88995 61668" /> 
<path d="M88896 61820 L88934 61729" /> 
<path d="M88896 61919 L88896 61820" /> 
<path d="M88896 62719 L88896 61919" /> 
<path d="M88934 62811 L88896 62719" /> 
<path d="M89004 62881 L88934 62811" /> 
<path d="M89095 62919 L89004 62881" /> 
<path d="M89194 62919 L89095 62919" /> 
<path d="M89594 62919 L89194 62919" /> 
<path d="M89686 62881 L89594 62919" /> 
<path d="M89756 62811 L89686 62881" /> 
<path d="M89794 62720 L89756 62811" /> 
<path d="M89794 62621 L89794 62720" /> 
<path d="M89794 61821 L89794 62621" /> 
<path d="M89756 61729 L89794 61821" /> 
<path d="M89720 61693 L89756 61729" /> 
<path d="M90947 60468 L89720 61693" /> 
<path d="M90947 60467 L90947 60468" /> 
<path d="M91023 60354 L90947 60467" /> 
<path d="M91049 60220 L91023 60354" /> 
<path d="M91050 60220 L91049 60220" /> 
<path d="M91050 59288 L91050 60220" /> 
<path d="M91103 59367 L91050 59288" /> 
<path d="M91976 60241 L91103 59367" /> 
<path d="M91977 60241 L91976 60241" /> 
<path d="M92090 60317 L91977 60241" /> 
<path d="M92224 60344 L92090 60317" /> 
<path d="M93038 60344 L92224 60344" /> 
<path d="M93127 60381 L93038 60344" /> 
<path d="M93226 60381 L93127 60381" /> 
<path d="M93620 60381 L93226 60381" /> 
<path d="M93712 60343 L93620 60381" /> 
<path d="M93782 60273 L93712 60343" /> 
<path d="M93820 60182 L93782 60273" /> 
<path d="M93820 60083 L93820 60182" /> 
<path d="M93820 59807 L93820 60083" /> 
<path d="M93782 59715 L93820 59807" /> 
<path d="M93712 59645 L93782 59715" /> 
<path d="M93621 59607 L93712 59645" /> 
<path d="M93522 59607 L93621 59607" /> 
<path d="M93128 59607 L93522 59607" /> 
<path d="M93038 59644 L93128 59607" /> 
<path d="M92550 59644 L93038 59644" /> 
<path d="M92550 58112 L92550 59644" /> 
<path d="M92550 57888 L92550 58112" /> 
<path d="M92549 57649 L92550 57888" /> 
<path d="M92549 57550 L92549 57649" /> 
<path d="M92511 57459 L92549 57550" /> 
<path d="M92441 57389 L92511 57459" /> 
<path d="M92349 57351 L92441 57389" /> 
<path d="M92112 57350 L92349 57351" /> 
<path d="M92050 57412 L92112 57350" /> 
<path d="M92050 57950 L92050 57412" /> 
<path d="M92488 57950 L92050 57950" /> 
<path d="M92550 57888 L92488 57950" /> 
<path d="M92550 58112 L92550 57888" /> 
<path d="M92488 58050 L92550 58112" /> 
<path d="M92050 58050 L92488 58050" /> 
<path d="M92050 58588 L92050 58050" /> 
<path d="M92112 58650 L92050 58588" /> 
<path d="M92349 58649 L92112 58650" /> 
<path d="M92441 58611 L92349 58649" /> 
<path d="M92511 58541 L92441 58611" /> 
<path d="M92549 58450 L92511 58541" /> 
<path d="M92549 58351 L92549 58450" /> 
<path d="M92550 58112 L92549 58351" /> 
<path d="M92550 59644 L92550 58112" /> 
<path d="M92368 59644 L92550 59644" /> 
<path d="M91700 58975 L92368 59644" /> 
<path d="M91700 58649 L91700 58975" /> 
<path d="M91888 58650 L91700 58649" /> 
<path d="M91950 58588 L91888 58650" /> 
<path d="M91950 58100 L91950 58588" /> 
<path d="M91950 58050 L91950 58100" /> 
<path d="M91950 57950 L91950 58050" /> 
<path d="M91950 57900 L91950 57950" /> 
<path d="M91950 57412 L91950 57900" /> 
<path d="M91888 57350 L91950 57412" /> 
<path d="M91700 57350 L91888 57350" /> 
<path d="M91700 56798 L91700 57350" /> 
<path d="M91673 56664 L91700 56798" /> 
<path d="M91597 56551 L91673 56664" /> 
<path d="M91597 56550 L91597 56551" /> 
<path d="M91550 56503 L91597 56550" /> 
<path d="M91550 53294 L91550 56503" /> 
<path d="M91523 53160 L91550 53294" /> 
<path d="M91447 53047 L91523 53160" /> 
<path d="M91447 53046 L91447 53047" /> 
<path d="M90690 52289 L91447 53046" /> 
<path d="M90690 51807 L90690 52289" /> 
<path d="M90906 51718 L90690 51807" /> 
<path d="M91187 51437 L90906 51718" /> 
<path d="M91340 51070 L91187 51437" /> 
<path d="M91492 51436 L91340 51070" /> 
<path d="M91773 51717 L91492 51436" /> 
<path d="M92140 51870 L91773 51717" /> 
<path d="M92538 51870 L92140 51870" /> 
<path d="M92906 51718 L92538 51870" /> 
<path d="M93187 51437 L92906 51718" /> 
<path d="M93340 51070 L93187 51437" /> 
<path d="M93341 51571 L93340 51070" /> 
<path d="M93341 51670 L93341 51571" /> 
<path d="M93379 51761 L93341 51670" /> 
<path d="M93449 51831 L93379 51761" /> 
<path d="M93541 51869 L93449 51831" /> 
<path d="M94228 51870 L93541 51869" /> 
<path d="M94290 51808 L94228 51870" /> 
<path d="M94290 50920 L94290 51808" /> 
<path d="M93402 50920 L94290 50920" /> 
<path d="M93340 50982 L93402 50920" /> 
<path d="M93340 50758 L93340 50982" /> 
<path d="M93402 50820 L93340 50758" /> 
<path d="M94290 50820 L93402 50820" /> 
<path d="M94290 49932 L94290 50820" /> 
<path d="M94228 49870 L94290 49932" /> 
<path d="M93541 49871 L94228 49870" /> 
<path d="M93449 49909 L93541 49871" /> 
<path d="M93379 49979 L93449 49909" /> 
<path d="M93341 50070 L93379 49979" /> 
<path d="M93341 50169 L93341 50070" /> 
<path d="M93340 50672 L93341 50169" /> 
<path d="M93188 50304 L93340 50672" /> 
<path d="M92907 50023 L93188 50304" /> 
<path d="M92690 49932 L92907 50023" /> 
<path d="M92690 49770 L92690 49932" /> 
<path d="M92689 49769 L92690 49770" /> 
<path d="M92663 49636 L92689 49769" /> 
<path d="M92587 49523 L92663 49636" /> 
<path d="M92587 49522 L92587 49523" /> 
<path d="M92289 49225 L92587 49522" /> 
<path d="M96025 49225 L92289 49225" /> 
<path d="M96025 63875 L96025 49225" /> 
</g>
<g style="fill:#000000; fill-opacity:1.00; stroke:#000000; stroke-opacity:1.00; stroke-linecap:round; stroke-linejoin:round; stroke-width:0" 
   transform="translate(0.00 0.00) scale(1.00 1.00)">
<polygon style="fill-rule:evenodd; " 
points="95333,57816
95309,57780
95309,57626
95271,57534
95235,57498
95235,56942
95291,56886
95329,56795
95329,56696
95329,56146
95291,56054
95275,56038
95275,55752
95311,55716
95349,55625
95349,55526
95349,54976
95311,54884
95275,54848
95275,54602
95311,54566
95349,54475
95349,54376
95349,53826
95340,53804
95340,50982
95340,50758
95339,50169
95339,50070
95301,49979
95231,49909
95139,49871
94452,49870
94390,49932
94390,50820
95278,50820
95340,50758
95340,50982
95278,50920
94390,50920
94390,51808
94452,51870
95139,51869
95231,51831
95301,51761
95339,51670
95339,51571
95340,50982
95340,53804
95311,53734
95241,53664
95150,53626
95051,53626
94701,53626
94609,53664
94550,53723
94491,53664
94400,53626
94301,53626
93951,53626
93859,53664
93789,53734
93751,53825
93751,53924
93751,54079
93390,54440
92973,54440
92974,54439
92975,54402
92975,54178
92974,54141
92936,54049
92866,53979
92775,53941
92676,53941
92612,53940
92550,54002
92550,54240
92913,54240
92975,54178
92975,54402
92913,54340
92600,54340
92550,54340
92450,54340
92450,54240
92450,54002
92388,53940
92324,53941
92225,53941
92134,53979
92064,54049
92026,54141
92025,54178
92087,54240
92450,54240
92450,54340
92400,54340
92087,54340
92025,54402
92026,54439
92064,54531
92073,54540
92064,54549
92026,54640
92026,54739
92026,54939
92064,55031
92073,55040
92064,55049
92026,55140
92026,55239
92026,55439
92064,55531
92073,55540
92064,55549
92026,55640
92026,55739
92026,55939
92064,56031
92134,56101
92225,56139
92324,56139
92495,56139
92500,56140
93330,56140
93731,56540
93731,56794
93769,56886
93839,56956
93930,56994
94029,56994
94379,56994
94471,56956
94530,56897
94535,56902
94535,57498
94510,57523
94451,57464
94359,57426
94247,57425
94185,57487
94185,57850
94185,57900
94185,58000
94185,58050
94185,58413
94247,58475
94359,58474
94451,58436
94510,58377
94569,58436
94660,58474
94660,59248
94621,59232
94522,59232
94486,59231
94424,59293
94424,59519
94424,59569
94424,59669
94324,59669
94324,59569
94324,59293
94262,59231
94226,59232
94127,59232
94085,59249
94085,58413
94085,58000
94085,57900
94085,57487
94023,57425
93911,57426
93819,57464
93749,57534
93711,57625
93711,57724
93710,57838
93772,57900
94085,57900
94085,58000
93772,58000
93710,58062
93711,58176
93711,58275
93749,58366
93819,58436
93911,58474
94023,58475
94085,58413
94085,59249
94036,59270
93966,59340
93928,59432
93927,59507
93989,59569
94324,59569
94324,59669
94274,59669
93989,59669
93927,59731
93928,59806
93966,59898
94036,59968
94098,59994
94036,60020
93966,60090
93928,60181
93928,60280
93928,60556
93966,60648
94036,60718
94127,60756
94226,60756
94620,60756
94709,60719
94731,60719
94731,60718
94865,60692
94978,60616
95257,60338
95257,60337
95333,60224
95359,60090
95360,60090
95360,63875
88895,63875
88895,62382
88895,62158
88894,61919
88894,61820
88856,61729
88786,61659
88694,61621
88557,61620
88495,61682
88495,62220
88833,62220
88895,62158
88895,62382
88833,62320
88495,62320
88495,62858
88557,62920
88694,62919
88786,62881
88856,62811
88894,62720
88894,62621
88895,62382
88895,63875
88395,63875
88395,62858
88395,62320
88395,62220
88395,61682
88395,60258
88395,59720
88395,59620
88395,59082
88333,59020
87676,59021
87584,59059
87514,59129
87476,59220
87476,59319
87475,59558
87537,59620
88395,59620
88395,59720
87537,59720
87475,59782
87476,60021
87476,60120
87514,60211
87584,60281
87676,60319
88333,60320
88395,60258
88395,61682
88333,61620
88196,61621
88104,61659
88034,61729
87996,61820
87996,61919
87995,62158
88057,62220
88395,62220
88395,62320
88057,62320
87995,62382
87996,62621
87996,62720
88034,62811
88104,62881
88196,62919
88333,62920
88395,62858
88395,63875
86575,63875
86575,49235
87000,49235
86719,49517
86643,49630
86616,49764
86616,61116
86643,61250
86719,61363
87119,61764
87096,61820
87096,61919
87096,62719
87134,62811
87204,62881
87295,62919
87394,62919
87794,62919
87886,62881
87956,62811
87994,62720
87994,62621
87994,61821
87956,61729
87888,61661
87887,61660
87868,61561
87792,61448
87792,61447
87316,60971
87316,56443
87359,56486
87450,56524
87549,56524
87899,56524
87991,56486
88050,56427
88109,56486
88200,56524
88299,56524
88649,56524
88741,56486
88811,56416
88849,56325
88849,56226
88849,56070
89013,55906
89016,55921
89092,56034
89094,56037
89095,56037
89208,56113
89342,56140
89650,56140
89650,57015
89677,57149
89753,57262
90151,57660
90151,58449
90189,58541
90259,58611
90350,58649
90350,60075
89415,61010
89415,59782
89415,59558
89414,59319
89414,59220
89376,59129
89306,59059
89214,59021
88557,59020
88495,59082
88495,59620
89353,59620
89415,59558
89415,59782
89353,59720
88495,59720
88495,60258
88557,60320
89214,60319
89306,60281
89376,60211
89414,60120
89414,60021
89415,59782
89415,61010
89098,61328
89022,61441
88995,61575
88995,61668
88934,61729
88896,61820
88896,61919
88896,62719
88934,62811
89004,62881
89095,62919
89194,62919
89594,62919
89686,62881
89756,62811
89794,62720
89794,62621
89794,61821
89756,61729
89720,61693
90947,60468
90947,60467
91023,60354
91049,60220
91050,60220
91050,59288
91103,59367
91976,60241
91977,60241
92090,60317
92224,60344
93038,60344
93127,60381
93226,60381
93620,60381
93712,60343
93782,60273
93820,60182
93820,60083
93820,59807
93782,59715
93712,59645
93621,59607
93522,59607
93128,59607
93038,59644
92550,59644
92550,58112
92550,57888
92549,57649
92549,57550
92511,57459
92441,57389
92349,57351
92112,57350
92050,57412
92050,57950
92488,57950
92550,57888
92550,58112
92488,58050
92050,58050
92050,58588
92112,58650
92349,58649
92441,58611
92511,58541
92549,58450
92549,58351
92550,58112
92550,59644
92368,59644
91700,58975
91700,58649
91888,58650
91950,58588
91950,58100
91950,58050
91950,57950
91950,57900
91950,57412
91888,57350
91700,57350
91700,56798
91673,56664
91597,56551
91597,56550
91550,56503
91550,53294
91523,53160
91447,53047
91447,53046
90690,52289
90690,51807
90906,51718
91187,51437
91340,51070
91492,51436
91773,51717
92140,51870
92538,51870
92906,51718
93187,51437
93340,51070
93341,51571
93341,51670
93379,51761
93449,51831
93541,51869
94228,51870
94290,51808
94290,50920
93402,50920
93340,50982
93340,50758
93402,50820
94290,50820
94290,49932
94228,49870
93541,49871
93449,49909
93379,49979
93341,50070
93341,50169
93340,50672
93188,50304
92907,50023
92690,49932
92690,49770
92689,49769
92663,49636
92587,49523
92587,49522
92289,49225
96025,49225
96025,63875
96025,63875
95360,63875
95360,60090
95360,57950
" /> 
<polygon style="fill-rule:evenodd; " 
points="93571,60132
93177,60132
93177,59856
93571,59856
" /> 
<polygon style="fill-rule:evenodd; " 
points="94571,59757
94177,59757
94177,59481
94571,59481
" /> 
<polygon style="fill-rule:evenodd; " 
points="94571,60507
94177,60507
94177,60231
94571,60231
" /> 
<path d="M93833 59207 L93837 59207" /> 
<path d="M93835 59205 L93835 59209" /> 
</g>
<g style="fill:#000000; fill-opacity:0.0; stroke:#000000; stroke-opacity:1.00; stroke-linecap:round; stroke-linejoin:round; stroke-width:30" 
   transform="translate(0.00 0.00) scale(1.00 1.00)">
<path d="M93806 59357 L93778 59343" /> 
<path d="M93778 59343 L93749 59314" /> 
<path d="M93749 59314 L93706 59271" /> 
<path d="M93706 59271 L93678 59257" /> 
<path d="M93678 59257 L93649 59257" /> 
<g style = "stroke-linecap:round;" > 
<path d="M93649 59257 L93649 59257" /> 
</g><path d="M93664 59328 L93635 59314" /> 
<path d="M93635 59314 L93606 59286" /> 
<path d="M93606 59286 L93592 59228" /> 
<path d="M93592 59228 L93592 59128" /> 
<path d="M93592 59128 L93606 59071" /> 
<path d="M93606 59071 L93635 59043" /> 
<path d="M93635 59043 L93664 59028" /> 
<path d="M93664 59028 L93721 59028" /> 
<path d="M93721 59028 L93749 59043" /> 
<path d="M93749 59043 L93778 59071" /> 
<path d="M93778 59071 L93792 59128" /> 
<path d="M93792 59128 L93792 59228" /> 
<path d="M93792 59228 L93778 59286" /> 
<path d="M93778 59286 L93749 59314" /> 
<path d="M93749 59314 L93721 59328" /> 
<path d="M93721 59328 L93664 59328" /> 
<path d="M94078 59328 L93906 59328" /> 
<g style = "stroke-linecap:round;" > 
<path d="M93906 59328 L93906 59328" /> 
</g><path d="M93992 59328 L93992 59028" /> 
<path d="M93992 59028 L93963 59071" /> 
<path d="M93963 59071 L93935 59100" /> 
<path d="M93935 59100 L93906 59114" /> 
<g style = "stroke-linecap:round;" > 
<path d="M93906 59114 L93906 59114" /> 
</g></g>
<g style="fill:#000000; fill-opacity:0.0; stroke:#000000; stroke-opacity:1.00; stroke-linecap:round; stroke-linejoin:round; stroke-width:0" 
   transform="translate(0.00 0.00) scale(1.00 1.00)">
<path d="M93872 59969 L93876 59969" /> 
<path d="M93874 59967 L93874 59971" /> 
</g>
<g style="fill:#000000; fill-opacity:0.0; stroke:#000000; stroke-opacity:1.00; stroke-linecap:round; stroke-linejoin:round; stroke-width:30" 
   transform="translate(0.00 0.00) scale(1.00 1.00)">
<path d="M93953 60658 L93756 60658" /> 
<path d="M93756 60658 L93897 60592" /> 
<path d="M93897 60592 L93756 60527" /> 
<path d="M93756 60527 L93953 60527" /> 
<g style = "stroke-linecap:round;" > 
<path d="M93953 60527 L93953 60527" /> 
</g><path d="M93756 60396 L93756 60358" /> 
<path d="M93756 60358 L93766 60339" /> 
<path d="M93766 60339 L93784 60321" /> 
<path d="M93784 60321 L93822 60311" /> 
<path d="M93822 60311 L93888 60311" /> 
<path d="M93888 60311 L93925 60321" /> 
<path d="M93925 60321 L93944 60339" /> 
<path d="M93944 60339 L93953 60358" /> 
<path d="M93953 60358 L93953 60396" /> 
<path d="M93953 60396 L93944 60414" /> 
<path d="M93944 60414 L93925 60433" /> 
<path d="M93925 60433 L93888 60442" /> 
<path d="M93888 60442 L93822 60442" /> 
<path d="M93822 60442 L93784 60433" /> 
<path d="M93784 60433 L93766 60414" /> 
<path d="M93766 60414 L93756 60396" /> 
<path d="M93944 60236 L93953 60208" /> 
<path d="M93953 60208 L93953 60161" /> 
<path d="M93953 60161 L93944 60143" /> 
<path d="M93944 60143 L93934 60133" /> 
<path d="M93934 60133 L93916 60124" /> 
<path d="M93916 60124 L93897 60124" /> 
<path d="M93897 60124 L93878 60133" /> 
<path d="M93878 60133 L93869 60143" /> 
<path d="M93869 60143 L93859 60161" /> 
<path d="M93859 60161 L93850 60199" /> 
<path d="M93850 60199 L93841 60218" /> 
<path d="M93841 60218 L93831 60227" /> 
<path d="M93831 60227 L93813 60236" /> 
<path d="M93813 60236 L93794 60236" /> 
<path d="M93794 60236 L93775 60227" /> 
<path d="M93775 60227 L93766 60218" /> 
<path d="M93766 60218 L93756 60199" /> 
<path d="M93756 60199 L93756 60152" /> 
<path d="M93756 60152 L93766 60124" /> 
<g style = "stroke-linecap:round;" > 
<path d="M93766 60124 L93766 60124" /> 
</g><path d="M93850 59973 L93850 60039" /> 
<g style = "stroke-linecap:round;" > 
<path d="M93850 60039 L93850 60039" /> 
</g><path d="M93953 60039 L93756 60039" /> 
<path d="M93756 60039 L93756 59945" /> 
<g style = "stroke-linecap:round;" > 
<path d="M93756 59945 L93756 59945" /> 
</g><path d="M93850 59870 L93850 59804" /> 
<g style = "stroke-linecap:round;" > 
<path d="M93850 59804 L93850 59804" /> 
</g><path d="M93953 59776 L93953 59870" /> 
<path d="M93953 59870 L93756 59870" /> 
<path d="M93756 59870 L93756 59776" /> 
<g style = "stroke-linecap:round;" > 
<path d="M93756 59776 L93756 59776" /> 
</g><path d="M93756 59720 L93756 59608" /> 
<g style = "stroke-linecap:round;" > 
<path d="M93756 59608 L93756 59608" /> 
</g><path d="M93953 59664 L93756 59664" /> 
<g style = "stroke-linecap:round;" > 
<path d="M93756 59664 L93756 59664" /> 
</g><path d="M93972 59589 L93972 59439" /> 
<g style = "stroke-linecap:round;" > 
<path d="M93972 59439 L93972 59439" /> 
</g><path d="M93953 59392 L93756 59392" /> 
<path d="M93756 59392 L93953 59280" /> 
<path d="M93953 59280 L93756 59280" /> 
<g style = "stroke-linecap:round;" > 
<path d="M93756 59280 L93756 59280" /> 
</g></g>
<g style="fill:#000000; fill-opacity:0.0; stroke:#000000; stroke-opacity:1.00; stroke-linecap:round; stroke-linejoin:round; stroke-width:50" 
   transform="translate(0.00 0.00) scale(1.00 1.00)">
<path d="M94174 60194 L93974 60494" /> 
<path d="M94174 59494 L94174 60519" /> 
<path d="M94174 60519 L93574 60519" /> 
<path d="M93574 60519 L93574 59494" /> 
<path d="M93574 59494 L94174 59494" /> 
</g>
<g style="fill:#000000; fill-opacity:1.00; stroke:#000000; stroke-opacity:1.00; stroke-linecap:round; stroke-linejoin:round; stroke-width:0" 
   transform="translate(0.00 0.00) scale(1.00 1.00)">
<polygon style="fill-rule:evenodd; " 
points="87725,60070
87725,59270
89165,59270
89165,60070
" /> 
<polygon style="fill-rule:evenodd; " 
points="88245,62670
88245,61870
88645,61870
88645,62670
" /> 
<polygon style="fill-rule:evenodd; " 
points="89145,62670
89145,61870
89545,61870
89545,62670
" /> 
<polygon style="fill-rule:evenodd; " 
points="87345,62670
87345,61870
87745,61870
87745,62670
" /> 
<path d="M88443 60670 L88447 60670" /> 
<path d="M88445 60668 L88445 60672" /> 
</g>
<g style="fill:#000000; fill-opacity:0.0; stroke:#000000; stroke-opacity:1.00; stroke-linecap:round; stroke-linejoin:round; stroke-width:80" 
   transform="translate(0.00 0.00) scale(1.00 1.00)">
<path d="M88140 60432 L88140 60756" /> 
<path d="M88140 60756 L88159 60794" /> 
<path d="M88159 60794 L88178 60813" /> 
<path d="M88178 60813 L88216 60832" /> 
<path d="M88216 60832 L88293 60832" /> 
<path d="M88293 60832 L88331 60813" /> 
<path d="M88331 60813 L88350 60794" /> 
<path d="M88350 60794 L88369 60756" /> 
<path d="M88369 60756 L88369 60432" /> 
<g style = "stroke-linecap:round;" > 
<path d="M88369 60432 L88369 60432" /> 
</g><path d="M88769 60832 L88540 60832" /> 
<g style = "stroke-linecap:round;" > 
<path d="M88540 60832 L88540 60832" /> 
</g><path d="M88654 60832 L88654 60432" /> 
<path d="M88654 60432 L88616 60489" /> 
<path d="M88616 60489 L88578 60527" /> 
<path d="M88578 60527 L88540 60546" /> 
<g style = "stroke-linecap:round;" > 
<path d="M88540 60546 L88540 60546" /> 
</g></g>
<g style="fill:#000000; fill-opacity:0.0; stroke:#000000; stroke-opacity:1.00; stroke-linecap:round; stroke-linejoin:round; stroke-width:0" 
   transform="translate(0.00 0.00) scale(1.00 1.00)">
<path d="M88443 61270 L88447 61270" /> 
<path d="M88445 61268 L88445 61272" /> 
</g>
<g style="fill:#000000; fill-opacity:0.0; stroke:#000000; stroke-opacity:1.00; stroke-linecap:round; stroke-linejoin:round; stroke-width:80" 
   transform="translate(0.00 0.00) scale(1.00 1.00)">
<path d="M87255 61432 L87255 61032" /> 
<path d="M87255 61032 L87389 61318" /> 
<path d="M87389 61318 L87522 61032" /> 
<path d="M87522 61032 L87522 61432" /> 
<g style = "stroke-linecap:round;" > 
<path d="M87522 61432 L87522 61432" /> 
</g><path d="M87712 61432 L87712 61032" /> 
<g style = "stroke-linecap:round;" > 
<path d="M87712 61032 L87712 61032" /> 
</g><path d="M88131 61394 L88112 61413" /> 
<path d="M88112 61413 L88055 61432" /> 
<path d="M88055 61432 L88017 61432" /> 
<path d="M88017 61432 L87959 61413" /> 
<path d="M87959 61413 L87921 61375" /> 
<path d="M87921 61375 L87902 61337" /> 
<path d="M87902 61337 L87883 61260" /> 
<path d="M87883 61260 L87883 61203" /> 
<path d="M87883 61203 L87902 61127" /> 
<path d="M87902 61127 L87921 61089" /> 
<path d="M87921 61089 L87959 61051" /> 
<path d="M87959 61051 L88017 61032" /> 
<path d="M88017 61032 L88055 61032" /> 
<path d="M88055 61032 L88112 61051" /> 
<path d="M88112 61051 L88131 61070" /> 
<g style = "stroke-linecap:round;" > 
<path d="M88131 61070 L88131 61070" /> 
</g><path d="M88283 61070 L88302 61051" /> 
<path d="M88302 61051 L88340 61032" /> 
<path d="M88340 61032 L88436 61032" /> 
<path d="M88436 61032 L88474 61051" /> 
<path d="M88474 61051 L88493 61070" /> 
<path d="M88493 61070 L88512 61108" /> 
<path d="M88512 61108 L88512 61146" /> 
<path d="M88512 61146 L88493 61203" /> 
<path d="M88493 61203 L88264 61432" /> 
<path d="M88264 61432 L88512 61432" /> 
<g style = "stroke-linecap:round;" > 
<path d="M88512 61432 L88512 61432" /> 
</g><path d="M88702 61432 L88778 61432" /> 
<path d="M88778 61432 L88817 61413" /> 
<path d="M88817 61413 L88836 61394" /> 
<path d="M88836 61394 L88874 61337" /> 
<path d="M88874 61337 L88893 61260" /> 
<path d="M88893 61260 L88893 61108" /> 
<path d="M88893 61108 L88874 61070" /> 
<path d="M88874 61070 L88855 61051" /> 
<path d="M88855 61051 L88817 61032" /> 
<path d="M88817 61032 L88740 61032" /> 
<path d="M88740 61032 L88702 61051" /> 
<path d="M88702 61051 L88683 61070" /> 
<path d="M88683 61070 L88664 61108" /> 
<path d="M88664 61108 L88664 61203" /> 
<path d="M88664 61203 L88683 61241" /> 
<path d="M88683 61241 L88702 61260" /> 
<path d="M88702 61260 L88740 61280" /> 
<path d="M88740 61280 L88817 61280" /> 
<path d="M88817 61280 L88855 61260" /> 
<path d="M88855 61260 L88874 61241" /> 
<path d="M88874 61241 L88893 61203" /> 
<g style = "stroke-linecap:round;" > 
<path d="M88893 61203 L88893 61203" /> 
</g><path d="M89255 61032 L89064 61032" /> 
<path d="M89064 61032 L89045 61222" /> 
<path d="M89045 61222 L89064 61203" /> 
<path d="M89064 61203 L89102 61184" /> 
<path d="M89102 61184 L89198 61184" /> 
<path d="M89198 61184 L89236 61203" /> 
<path d="M89236 61203 L89255 61222" /> 
<path d="M89255 61222 L89274 61260" /> 
<path d="M89274 61260 L89274 61356" /> 
<path d="M89274 61356 L89255 61394" /> 
<path d="M89255 61394 L89236 61413" /> 
<path d="M89236 61413 L89198 61432" /> 
<path d="M89198 61432 L89102 61432" /> 
<path d="M89102 61432 L89064 61413" /> 
<path d="M89064 61413 L89045 61394" /> 
<g style = "stroke-linecap:round;" > 
<path d="M89045 61394 L89045 61394" /> 
</g><path d="M89617 61165 L89617 61432" /> 
<g style = "stroke-linecap:round;" > 
<path d="M89617 61432 L89617 61432" /> 
</g><path d="M89521 61013 L89426 61299" /> 
<path d="M89426 61299 L89674 61299" /> 
<g style = "stroke-linecap:round;" > 
<path d="M89674 61299 L89674 61299" /> 
</g><path d="M87045 61570 L87045 62770" /> 
<path d="M87045 62770 L89845 62770" /> 
<path d="M89845 62770 L89845 61570" /> 
<path d="M87045 60370 L87045 60070" /> 
<path d="M87045 60070 L87645 59170" /> 
<path d="M87645 59170 L89245 59170" /> 
<path d="M89245 59170 L89845 60070" /> 
<path d="M89845 60070 L89845 60370" /> 
</g>
<g style="fill:#000000; fill-opacity:1.00; stroke:#000000; stroke-opacity:1.00; stroke-linecap:round; stroke-linejoin:round; stroke-width:0" 
   transform="translate(0.00 0.00) scale(1.00 1.00)">
<polygon style="fill-rule:evenodd; " 
points="90225,55890
89775,55890
89775,55690
90225,55690
" /> 
<polygon style="fill-rule:evenodd; " 
points="90225,55390
89775,55390
89775,55190
90225,55190
" /> 
<polygon style="fill-rule:evenodd; " 
points="90225,54890
89775,54890
89775,54690
90225,54690
" /> 
<polygon style="fill-rule:evenodd; " 
points="90225,54390
89775,54390
89775,54190
90225,54190
" /> 
<polygon style="fill-rule:evenodd; " 
points="92725,54390
92275,54390
92275,54190
92725,54190
" /> 
<polygon style="fill-rule:evenodd; " 
points="92725,54890
92275,54890
92275,54690
92725,54690
" /> 
<polygon style="fill-rule:evenodd; " 
points="92725,55390
92275,55390
92275,55190
92725,55190
" /> 
<polygon style="fill-rule:evenodd; " 
points="92725,55890
92275,55890
92275,55690
92725,55690
" /> 
<path d="M90748 55040 L90752 55040" /> 
<path d="M90750 55038 L90750 55042" /> 
</g>
<g style="fill:#000000; fill-opacity:0.0; stroke:#000000; stroke-opacity:1.00; stroke-linecap:round; stroke-linejoin:round; stroke-width:50" 
   transform="translate(0.00 0.00) scale(1.00 1.00)">
<path d="M90932 55430 L90482 55430" /> 
<g style = "stroke-linecap:round;" > 
<path d="M90482 55430 L90482 55430" /> 
</g><path d="M90889 55011 L90911 55030" /> 
<path d="M90911 55030 L90932 55087" /> 
<path d="M90932 55087 L90932 55125" /> 
<path d="M90932 55125 L90911 55183" /> 
<path d="M90911 55183 L90868 55221" /> 
<path d="M90868 55221 L90825 55240" /> 
<path d="M90825 55240 L90739 55259" /> 
<path d="M90739 55259 L90675 55259" /> 
<path d="M90675 55259 L90589 55240" /> 
<path d="M90589 55240 L90546 55221" /> 
<path d="M90546 55221 L90504 55183" /> 
<path d="M90504 55183 L90482 55125" /> 
<path d="M90482 55125 L90482 55087" /> 
<path d="M90482 55087 L90504 55030" /> 
<path d="M90504 55030 L90525 55011" /> 
<g style = "stroke-linecap:round;" > 
<path d="M90525 55011 L90525 55011" /> 
</g><path d="M90932 54630 L90932 54859" /> 
<g style = "stroke-linecap:round;" > 
<path d="M90932 54859 L90932 54859" /> 
</g><path d="M90932 54745 L90482 54745" /> 
<path d="M90482 54745 L90546 54783" /> 
<path d="M90546 54783 L90589 54821" /> 
<path d="M90589 54821 L90611 54859" /> 
<g style = "stroke-linecap:round;" > 
<path d="M90611 54859 L90611 54859" /> 
</g></g>
<g style="fill:#000000; fill-opacity:0.0; stroke:#000000; stroke-opacity:1.00; stroke-linecap:round; stroke-linejoin:round; stroke-width:0" 
   transform="translate(0.00 0.00) scale(1.00 1.00)">
<path d="M91748 55040 L91752 55040" /> 
<path d="M91750 55038 L91750 55042" /> 
</g>
<g style="fill:#000000; fill-opacity:0.0; stroke:#000000; stroke-opacity:1.00; stroke-linecap:round; stroke-linejoin:round; stroke-width:50" 
   transform="translate(0.00 0.00) scale(1.00 1.00)">
<path d="M91798 56735 L91798 56544" /> 
<g style = "stroke-linecap:round;" > 
<path d="M91798 56544 L91798 56544" /> 
</g><path d="M91912 56773 L91512 56640" /> 
<path d="M91512 56640 L91912 56506" /> 
<g style = "stroke-linecap:round;" > 
<path d="M91912 56506 L91912 56506" /> 
</g><path d="M91512 56430 L91512 56201" /> 
<g style = "stroke-linecap:round;" > 
<path d="M91512 56201 L91512 56201" /> 
</g><path d="M91912 56316 L91512 56316" /> 
<g style = "stroke-linecap:round;" > 
<path d="M91512 56316 L91512 56316" /> 
</g><path d="M91512 56125 L91512 55896" /> 
<g style = "stroke-linecap:round;" > 
<path d="M91512 55896 L91512 55896" /> 
</g><path d="M91912 56011 L91512 56011" /> 
<g style = "stroke-linecap:round;" > 
<path d="M91512 56011 L91512 56011" /> 
</g><path d="M91912 55763 L91512 55763" /> 
<g style = "stroke-linecap:round;" > 
<path d="M91512 55763 L91512 55763" /> 
</g><path d="M91912 55573 L91512 55573" /> 
<path d="M91512 55573 L91912 55344" /> 
<path d="M91912 55344 L91512 55344" /> 
<g style = "stroke-linecap:round;" > 
<path d="M91512 55344 L91512 55344" /> 
</g><path d="M91721 55078 L91912 55078" /> 
<g style = "stroke-linecap:round;" > 
<path d="M91912 55078 L91912 55078" /> 
</g><path d="M91512 55211 L91721 55078" /> 
<path d="M91721 55078 L91512 54944" /> 
<g style = "stroke-linecap:round;" > 
<path d="M91512 54944 L91512 54944" /> 
</g><path d="M91683 54754 L91664 54792" /> 
<path d="M91664 54792 L91645 54811" /> 
<path d="M91645 54811 L91607 54830" /> 
<path d="M91607 54830 L91588 54830" /> 
<path d="M91588 54830 L91550 54811" /> 
<path d="M91550 54811 L91531 54792" /> 
<path d="M91531 54792 L91512 54754" /> 
<path d="M91512 54754 L91512 54677" /> 
<path d="M91512 54677 L91531 54639" /> 
<path d="M91531 54639 L91550 54620" /> 
<path d="M91550 54620 L91588 54601" /> 
<path d="M91588 54601 L91607 54601" /> 
<path d="M91607 54601 L91645 54620" /> 
<path d="M91645 54620 L91664 54639" /> 
<path d="M91664 54639 L91683 54677" /> 
<path d="M91683 54677 L91683 54754" /> 
<path d="M91683 54754 L91702 54792" /> 
<path d="M91702 54792 L91721 54811" /> 
<path d="M91721 54811 L91760 54830" /> 
<path d="M91760 54830 L91836 54830" /> 
<path d="M91836 54830 L91874 54811" /> 
<path d="M91874 54811 L91893 54792" /> 
<path d="M91893 54792 L91912 54754" /> 
<path d="M91912 54754 L91912 54677" /> 
<path d="M91912 54677 L91893 54639" /> 
<path d="M91893 54639 L91874 54620" /> 
<path d="M91874 54620 L91836 54601" /> 
<path d="M91836 54601 L91760 54601" /> 
<path d="M91760 54601 L91721 54620" /> 
<path d="M91721 54620 L91702 54639" /> 
<path d="M91702 54639 L91683 54677" /> 
<g style = "stroke-linecap:round;" > 
<path d="M91683 54677 L91683 54677" /> 
</g><path d="M91512 54239 L91512 54430" /> 
<path d="M91512 54430 L91702 54449" /> 
<path d="M91702 54449 L91683 54430" /> 
<path d="M91683 54430 L91664 54392" /> 
<path d="M91664 54392 L91664 54296" /> 
<path d="M91664 54296 L91683 54258" /> 
<path d="M91683 54258 L91702 54239" /> 
<path d="M91702 54239 L91740 54220" /> 
<path d="M91740 54220 L91836 54220" /> 
<path d="M91836 54220 L91874 54239" /> 
<path d="M91874 54239 L91893 54258" /> 
<path d="M91893 54258 L91912 54296" /> 
<path d="M91912 54296 L91912 54392" /> 
<path d="M91912 54392 L91893 54430" /> 
<path d="M91893 54430 L91874 54449" /> 
<g style = "stroke-linecap:round;" > 
<path d="M91874 54449 L91874 54449" /> 
</g><path d="M91760 54049 L91760 53744" /> 
<g style = "stroke-linecap:round;" > 
<path d="M91760 53744 L91760 53744" /> 
</g><path d="M91893 53573 L91912 53516" /> 
<path d="M91912 53516 L91912 53420" /> 
<path d="M91912 53420 L91893 53382" /> 
<path d="M91893 53382 L91874 53363" /> 
<path d="M91874 53363 L91836 53344" /> 
<path d="M91836 53344 L91798 53344" /> 
<path d="M91798 53344 L91760 53363" /> 
<path d="M91760 53363 L91740 53382" /> 
<path d="M91740 53382 L91721 53420" /> 
<path d="M91721 53420 L91702 53497" /> 
<path d="M91702 53497 L91683 53535" /> 
<path d="M91683 53535 L91664 53554" /> 
<path d="M91664 53554 L91626 53573" /> 
<path d="M91626 53573 L91588 53573" /> 
<path d="M91588 53573 L91550 53554" /> 
<path d="M91550 53554 L91531 53535" /> 
<path d="M91531 53535 L91512 53497" /> 
<path d="M91512 53497 L91512 53401" /> 
<path d="M91512 53401 L91531 53344" /> 
<g style = "stroke-linecap:round;" > 
<path d="M91531 53344 L91531 53344" /> 
</g><path d="M90350 56040 L90350 54040" /> 
<path d="M90350 54040 L92150 54040" /> 
<path d="M92150 54040 L92150 56040" /> 
<path d="M92150 56040 L90350 56040" /> 
<path d="M90950 56040 L90950 55840" /> 
<path d="M90950 55840 L91450 55840" /> 
<path d="M91450 55840 L91450 56040" /> 
</g>
<g style="fill:#000000; fill-opacity:1.00; stroke:#000000; stroke-opacity:1.00; stroke-linecap:round; stroke-linejoin:round; stroke-width:0" 
   transform="translate(0.00 0.00) scale(1.00 1.00)">
<polygon style="fill-rule:evenodd; " 
points="90400,58400
90400,57600
91000,57600
91000,58400
" /> 
<polygon style="fill-rule:evenodd; " 
points="91700,58400
91700,57600
92300,57600
92300,58400
" /> 
<path d="M91348 58000 L91352 58000" /> 
<path d="M91350 57998 L91350 58002" /> 
</g>
<g style="fill:#000000; fill-opacity:0.0; stroke:#000000; stroke-opacity:1.00; stroke-linecap:round; stroke-linejoin:round; stroke-width:50" 
   transform="translate(0.00 0.00) scale(1.00 1.00)">
<path d="M91300 58093 L91286 58107" /> 
<path d="M91286 58107 L91243 58121" /> 
<path d="M91243 58121 L91214 58121" /> 
<path d="M91214 58121 L91171 58107" /> 
<path d="M91171 58107 L91143 58079" /> 
<path d="M91143 58079 L91128 58050" /> 
<path d="M91128 58050 L91114 57993" /> 
<path d="M91114 57993 L91114 57950" /> 
<path d="M91114 57950 L91128 57893" /> 
<path d="M91128 57893 L91143 57864" /> 
<path d="M91143 57864 L91171 57836" /> 
<path d="M91171 57836 L91214 57821" /> 
<path d="M91214 57821 L91243 57821" /> 
<path d="M91243 57821 L91286 57836" /> 
<path d="M91286 57836 L91300 57850" /> 
<g style = "stroke-linecap:round;" > 
<path d="M91300 57850 L91300 57850" /> 
</g><path d="M91586 58121 L91414 58121" /> 
<g style = "stroke-linecap:round;" > 
<path d="M91414 58121 L91414 58121" /> 
</g><path d="M91500 58121 L91500 57821" /> 
<path d="M91500 57821 L91471 57864" /> 
<path d="M91471 57864 L91443 57893" /> 
<path d="M91443 57893 L91414 57907" /> 
<g style = "stroke-linecap:round;" > 
<path d="M91414 57907 L91414 57907" /> 
</g><path d="M90350 57550 L90350 58450" /> 
<path d="M90350 58450 L91000 58450" /> 
<path d="M91700 57550 L92350 57550" /> 
<path d="M92350 57550 L92350 58450" /> 
<path d="M92350 58450 L91700 58450" /> 
<path d="M91000 57550 L90350 57550" /> 
</g>
<g style="fill:#000000; fill-opacity:1.00; stroke:#000000; stroke-opacity:1.00; stroke-linecap:round; stroke-linejoin:round; stroke-width:0" 
   transform="translate(0.00 0.00) scale(1.00 1.00)">
<polygon style="fill-rule:evenodd; " 
points="95060,57675
95060,58225
94710,58225
94710,57675
" /> 
<polygon style="fill-rule:evenodd; " 
points="94310,57675
94310,58225
93960,58225
93960,57675
" /> 
<path d="M94508 57950 L94512 57950" /> 
<path d="M94510 57948 L94510 57952" /> 
</g>
<g style="fill:#000000; fill-opacity:0.0; stroke:#000000; stroke-opacity:1.00; stroke-linecap:round; stroke-linejoin:round; stroke-width:50" 
   transform="translate(0.00 0.00) scale(1.00 1.00)">
<path d="M94468 58051 L94385 57932" /> 
<g style = "stroke-linecap:round;" > 
<path d="M94385 57932 L94385 57932" /> 
</g><path d="M94326 58051 L94326 57801" /> 
<path d="M94326 57801 L94421 57801" /> 
<path d="M94421 57801 L94445 57813" /> 
<path d="M94445 57813 L94456 57825" /> 
<path d="M94456 57825 L94468 57849" /> 
<path d="M94468 57849 L94468 57885" /> 
<path d="M94468 57885 L94456 57908" /> 
<path d="M94456 57908 L94445 57920" /> 
<path d="M94445 57920 L94421 57932" /> 
<path d="M94421 57932 L94326 57932" /> 
<g style = "stroke-linecap:round;" > 
<path d="M94326 57932 L94326 57932" /> 
</g><path d="M94706 58051 L94564 58051" /> 
<g style = "stroke-linecap:round;" > 
<path d="M94564 58051 L94564 58051" /> 
</g><path d="M94635 58051 L94635 57801" /> 
<path d="M94635 57801 L94611 57837" /> 
<path d="M94611 57837 L94587 57861" /> 
<path d="M94587 57861 L94564 57873" /> 
<g style = "stroke-linecap:round;" > 
<path d="M94564 57873 L94564 57873" /> 
</g><ellipse cx="95160" cy="57650" rx="50" ry="50"  /> 
<path d="M94710 57650 L95110 57650" /> 
<path d="M95110 57650 L95110 58250" /> 
<path d="M95110 58250 L94710 58250" /> 
<path d="M94310 58250 L93910 58250" /> 
<path d="M93910 58250 L93910 57650" /> 
<path d="M93910 57650 L94310 57650" /> 
</g>
<g style="fill:#000000; fill-opacity:1.00; stroke:#000000; stroke-opacity:1.00; stroke-linecap:round; stroke-linejoin:round; stroke-width:0" 
   transform="translate(0.00 0.00) scale(1.00 1.00)">
<polygon style="fill-rule:evenodd; " 
points="95080,56195
95080,56745
94730,56745
94730,56195
" /> 
<polygon style="fill-rule:evenodd; " 
points="94330,56195
94330,56745
93980,56745
93980,56195
" /> 
<path d="M94528 56470 L94532 56470" /> 
<path d="M94530 56468 L94530 56472" /> 
</g>
<g style="fill:#000000; fill-opacity:0.0; stroke:#000000; stroke-opacity:1.00; stroke-linecap:round; stroke-linejoin:round; stroke-width:50" 
   transform="translate(0.00 0.00) scale(1.00 1.00)">
<path d="M94488 56571 L94405 56452" /> 
<g style = "stroke-linecap:round;" > 
<path d="M94405 56452 L94405 56452" /> 
</g><path d="M94346 56571 L94346 56321" /> 
<path d="M94346 56321 L94441 56321" /> 
<path d="M94441 56321 L94465 56333" /> 
<path d="M94465 56333 L94476 56345" /> 
<path d="M94476 56345 L94488 56369" /> 
<path d="M94488 56369 L94488 56405" /> 
<path d="M94488 56405 L94476 56428" /> 
<path d="M94476 56428 L94465 56440" /> 
<path d="M94465 56440 L94441 56452" /> 
<path d="M94441 56452 L94346 56452" /> 
<g style = "stroke-linecap:round;" > 
<path d="M94346 56452 L94346 56452" /> 
</g><path d="M94572 56321 L94738 56321" /> 
<path d="M94738 56321 L94631 56571" /> 
<g style = "stroke-linecap:round;" > 
<path d="M94631 56571 L94631 56571" /> 
</g><ellipse cx="95180" cy="56170" rx="50" ry="50"  /> 
<path d="M94730 56170 L95130 56170" /> 
<path d="M95130 56170 L95130 56770" /> 
<path d="M95130 56770 L94730 56770" /> 
<path d="M94330 56770 L93930 56770" /> 
<path d="M93930 56770 L93930 56170" /> 
<path d="M93930 56170 L94330 56170" /> 
</g>
<g style="fill:#000000; fill-opacity:1.00; stroke:#000000; stroke-opacity:1.00; stroke-linecap:round; stroke-linejoin:round; stroke-width:0" 
   transform="translate(0.00 0.00) scale(1.00 1.00)">
<polygon style="fill-rule:evenodd; " 
points="95100,53875
95100,54425
94750,54425
94750,53875
" /> 
<polygon style="fill-rule:evenodd; " 
points="94350,53875
94350,54425
94000,54425
94000,53875
" /> 
<path d="M94548 54150 L94552 54150" /> 
<path d="M94550 54148 L94550 54152" /> 
</g>
<g style="fill:#000000; fill-opacity:0.0; stroke:#000000; stroke-opacity:1.00; stroke-linecap:round; stroke-linejoin:round; stroke-width:50" 
   transform="translate(0.00 0.00) scale(1.00 1.00)">
<path d="M94508 54251 L94425 54132" /> 
<g style = "stroke-linecap:round;" > 
<path d="M94425 54132 L94425 54132" /> 
</g><path d="M94366 54251 L94366 54001" /> 
<path d="M94366 54001 L94461 54001" /> 
<path d="M94461 54001 L94485 54013" /> 
<path d="M94485 54013 L94496 54025" /> 
<path d="M94496 54025 L94508 54049" /> 
<path d="M94508 54049 L94508 54085" /> 
<path d="M94508 54085 L94496 54108" /> 
<path d="M94496 54108 L94485 54120" /> 
<path d="M94485 54120 L94461 54132" /> 
<path d="M94461 54132 L94366 54132" /> 
<g style = "stroke-linecap:round;" > 
<path d="M94366 54132 L94366 54132" /> 
</g><path d="M94723 54001 L94675 54001" /> 
<path d="M94675 54001 L94651 54013" /> 
<path d="M94651 54013 L94639 54025" /> 
<path d="M94639 54025 L94616 54061" /> 
<path d="M94616 54061 L94604 54108" /> 
<path d="M94604 54108 L94604 54204" /> 
<path d="M94604 54204 L94616 54227" /> 
<path d="M94616 54227 L94627 54239" /> 
<path d="M94627 54239 L94651 54251" /> 
<path d="M94651 54251 L94699 54251" /> 
<path d="M94699 54251 L94723 54239" /> 
<path d="M94723 54239 L94735 54227" /> 
<path d="M94735 54227 L94746 54204" /> 
<path d="M94746 54204 L94746 54144" /> 
<path d="M94746 54144 L94735 54120" /> 
<path d="M94735 54120 L94723 54108" /> 
<path d="M94723 54108 L94699 54096" /> 
<path d="M94699 54096 L94651 54096" /> 
<path d="M94651 54096 L94627 54108" /> 
<path d="M94627 54108 L94616 54120" /> 
<path d="M94616 54120 L94604 54144" /> 
<g style = "stroke-linecap:round;" > 
<path d="M94604 54144 L94604 54144" /> 
</g><ellipse cx="95200" cy="53850" rx="50" ry="50"  /> 
<path d="M94750 53850 L95150 53850" /> 
<path d="M95150 53850 L95150 54450" /> 
<path d="M95150 54450 L94750 54450" /> 
<path d="M94350 54450 L93950 54450" /> 
<path d="M93950 54450 L93950 53850" /> 
<path d="M93950 53850 L94350 53850" /> 
</g>
<g style="fill:#000000; fill-opacity:1.00; stroke:#000000; stroke-opacity:1.00; stroke-linecap:round; stroke-linejoin:round; stroke-width:0" 
   transform="translate(0.00 0.00) scale(1.00 1.00)">
<polygon style="fill-rule:evenodd; " 
points="95100,55025
95100,55575
94750,55575
94750,55025
" /> 
<polygon style="fill-rule:evenodd; " 
points="94350,55025
94350,55575
94000,55575
94000,55025
" /> 
<path d="M94548 55300 L94552 55300" /> 
<path d="M94550 55298 L94550 55302" /> 
</g>
<g style="fill:#000000; fill-opacity:0.0; stroke:#000000; stroke-opacity:1.00; stroke-linecap:round; stroke-linejoin:round; stroke-width:50" 
   transform="translate(0.00 0.00) scale(1.00 1.00)">
<path d="M94508 55401 L94425 55282" /> 
<g style = "stroke-linecap:round;" > 
<path d="M94425 55282 L94425 55282" /> 
</g><path d="M94366 55401 L94366 55151" /> 
<path d="M94366 55151 L94461 55151" /> 
<path d="M94461 55151 L94485 55163" /> 
<path d="M94485 55163 L94496 55175" /> 
<path d="M94496 55175 L94508 55199" /> 
<path d="M94508 55199 L94508 55235" /> 
<path d="M94508 55235 L94496 55258" /> 
<path d="M94496 55258 L94485 55270" /> 
<path d="M94485 55270 L94461 55282" /> 
<path d="M94461 55282 L94366 55282" /> 
<g style = "stroke-linecap:round;" > 
<path d="M94366 55282 L94366 55282" /> 
</g><path d="M94735 55151 L94616 55151" /> 
<path d="M94616 55151 L94604 55270" /> 
<path d="M94604 55270 L94616 55258" /> 
<path d="M94616 55258 L94639 55246" /> 
<path d="M94639 55246 L94699 55246" /> 
<path d="M94699 55246 L94723 55258" /> 
<path d="M94723 55258 L94735 55270" /> 
<path d="M94735 55270 L94746 55294" /> 
<path d="M94746 55294 L94746 55354" /> 
<path d="M94746 55354 L94735 55377" /> 
<path d="M94735 55377 L94723 55389" /> 
<path d="M94723 55389 L94699 55401" /> 
<path d="M94699 55401 L94639 55401" /> 
<path d="M94639 55401 L94616 55389" /> 
<path d="M94616 55389 L94604 55377" /> 
<g style = "stroke-linecap:round;" > 
<path d="M94604 55377 L94604 55377" /> 
</g><ellipse cx="95200" cy="55000" rx="50" ry="50"  /> 
<path d="M94750 55000 L95150 55000" /> 
<path d="M95150 55000 L95150 55600" /> 
<path d="M95150 55600 L94750 55600" /> 
<path d="M94350 55600 L93950 55600" /> 
<path d="M93950 55600 L93950 55000" /> 
<path d="M93950 55000 L94350 55000" /> 
</g>
<g style="fill:#000000; fill-opacity:1.00; stroke:#000000; stroke-opacity:1.00; stroke-linecap:round; stroke-linejoin:round; stroke-width:0" 
   transform="translate(0.00 0.00) scale(1.00 1.00)">
<polygon style="fill-rule:evenodd; " 
points="87500,56275
87500,55725
87850,55725
87850,56275
" /> 
<polygon style="fill-rule:evenodd; " 
points="88250,56275
88250,55725
88600,55725
88600,56275
" /> 
<path d="M88048 56000 L88052 56000" /> 
<path d="M88050 55998 L88050 56002" /> 
</g>
<g style="fill:#000000; fill-opacity:0.0; stroke:#000000; stroke-opacity:1.00; stroke-linecap:round; stroke-linejoin:round; stroke-width:50" 
   transform="translate(0.00 0.00) scale(1.00 1.00)">
<path d="M88008 56101 L87925 55982" /> 
<g style = "stroke-linecap:round;" > 
<path d="M87925 55982 L87925 55982" /> 
</g><path d="M87866 56101 L87866 55851" /> 
<path d="M87866 55851 L87961 55851" /> 
<path d="M87961 55851 L87985 55863" /> 
<path d="M87985 55863 L87996 55875" /> 
<path d="M87996 55875 L88008 55899" /> 
<path d="M88008 55899 L88008 55935" /> 
<path d="M88008 55935 L87996 55958" /> 
<path d="M87996 55958 L87985 55970" /> 
<path d="M87985 55970 L87961 55982" /> 
<path d="M87961 55982 L87866 55982" /> 
<g style = "stroke-linecap:round;" > 
<path d="M87866 55982 L87866 55982" /> 
</g><path d="M88223 55935 L88223 56101" /> 
<g style = "stroke-linecap:round;" > 
<path d="M88223 56101 L88223 56101" /> 
</g><path d="M88163 55839 L88104 56018" /> 
<path d="M88104 56018 L88258 56018" /> 
<g style = "stroke-linecap:round;" > 
<path d="M88258 56018 L88258 56018" /> 
</g><ellipse cx="87400" cy="56300" rx="50" ry="50"  /> 
<path d="M87850 56300 L87450 56300" /> 
<path d="M87450 56300 L87450 55700" /> 
<path d="M87450 55700 L87850 55700" /> 
<path d="M88250 55700 L88650 55700" /> 
<path d="M88650 55700 L88650 56300" /> 
<path d="M88650 56300 L88250 56300" /> 
</g>
<g style="fill:#000000; fill-opacity:1.00; stroke:#000000; stroke-opacity:1.00; stroke-linecap:round; stroke-linejoin:round; stroke-width:0" 
   transform="translate(0.00 0.00) scale(1.00 1.00)">
<polygon style="fill-rule:evenodd; " 
points="87500,55125
87500,54575
87850,54575
87850,55125
" /> 
<polygon style="fill-rule:evenodd; " 
points="88250,55125
88250,54575
88600,54575
88600,55125
" /> 
<path d="M88048 54850 L88052 54850" /> 
<path d="M88050 54848 L88050 54852" /> 
</g>
<g style="fill:#000000; fill-opacity:0.0; stroke:#000000; stroke-opacity:1.00; stroke-linecap:round; stroke-linejoin:round; stroke-width:50" 
   transform="translate(0.00 0.00) scale(1.00 1.00)">
<path d="M88008 54951 L87925 54832" /> 
<g style = "stroke-linecap:round;" > 
<path d="M87925 54832 L87925 54832" /> 
</g><path d="M87866 54951 L87866 54701" /> 
<path d="M87866 54701 L87961 54701" /> 
<path d="M87961 54701 L87985 54713" /> 
<path d="M87985 54713 L87996 54725" /> 
<path d="M87996 54725 L88008 54749" /> 
<path d="M88008 54749 L88008 54785" /> 
<path d="M88008 54785 L87996 54808" /> 
<path d="M87996 54808 L87985 54820" /> 
<path d="M87985 54820 L87961 54832" /> 
<path d="M87961 54832 L87866 54832" /> 
<g style = "stroke-linecap:round;" > 
<path d="M87866 54832 L87866 54832" /> 
</g><path d="M88092 54701 L88246 54701" /> 
<path d="M88246 54701 L88163 54796" /> 
<path d="M88163 54796 L88199 54796" /> 
<path d="M88199 54796 L88223 54808" /> 
<path d="M88223 54808 L88235 54820" /> 
<path d="M88235 54820 L88246 54844" /> 
<path d="M88246 54844 L88246 54904" /> 
<path d="M88246 54904 L88235 54927" /> 
<path d="M88235 54927 L88223 54939" /> 
<path d="M88223 54939 L88199 54951" /> 
<path d="M88199 54951 L88127 54951" /> 
<path d="M88127 54951 L88104 54939" /> 
<path d="M88104 54939 L88092 54927" /> 
<g style = "stroke-linecap:round;" > 
<path d="M88092 54927 L88092 54927" /> 
</g><ellipse cx="87400" cy="55150" rx="50" ry="50"  /> 
<path d="M87850 55150 L87450 55150" /> 
<path d="M87450 55150 L87450 54550" /> 
<path d="M87450 54550 L87850 54550" /> 
<path d="M88250 54550 L88650 54550" /> 
<path d="M88650 54550 L88650 55150" /> 
<path d="M88650 55150 L88250 55150" /> 
</g>
<g style="fill:#000000; fill-opacity:1.00; stroke:#000000; stroke-opacity:1.00; stroke-linecap:round; stroke-linejoin:round; stroke-width:0" 
   transform="translate(0.00 0.00) scale(1.00 1.00)">
<polygon style="fill-rule:evenodd; " 
points="87500,54035
87500,53485
87850,53485
87850,54035
" /> 
<polygon style="fill-rule:evenodd; " 
points="88250,54035
88250,53485
88600,53485
88600,54035
" /> 
<path d="M88048 53760 L88052 53760" /> 
<path d="M88050 53758 L88050 53762" /> 
</g>
<g style="fill:#000000; fill-opacity:0.0; stroke:#000000; stroke-opacity:1.00; stroke-linecap:round; stroke-linejoin:round; stroke-width:50" 
   transform="translate(0.00 0.00) scale(1.00 1.00)">
<path d="M88008 53861 L87925 53742" /> 
<g style = "stroke-linecap:round;" > 
<path d="M87925 53742 L87925 53742" /> 
</g><path d="M87866 53861 L87866 53611" /> 
<path d="M87866 53611 L87961 53611" /> 
<path d="M87961 53611 L87985 53623" /> 
<path d="M87985 53623 L87996 53635" /> 
<path d="M87996 53635 L88008 53659" /> 
<path d="M88008 53659 L88008 53695" /> 
<path d="M88008 53695 L87996 53718" /> 
<path d="M87996 53718 L87985 53730" /> 
<path d="M87985 53730 L87961 53742" /> 
<path d="M87961 53742 L87866 53742" /> 
<g style = "stroke-linecap:round;" > 
<path d="M87866 53742 L87866 53742" /> 
</g><path d="M88104 53635 L88116 53623" /> 
<path d="M88116 53623 L88139 53611" /> 
<path d="M88139 53611 L88199 53611" /> 
<path d="M88199 53611 L88223 53623" /> 
<path d="M88223 53623 L88235 53635" /> 
<path d="M88235 53635 L88246 53659" /> 
<path d="M88246 53659 L88246 53683" /> 
<path d="M88246 53683 L88235 53718" /> 
<path d="M88235 53718 L88092 53861" /> 
<path d="M88092 53861 L88246 53861" /> 
<g style = "stroke-linecap:round;" > 
<path d="M88246 53861 L88246 53861" /> 
</g><ellipse cx="87400" cy="54060" rx="50" ry="50"  /> 
<path d="M87850 54060 L87450 54060" /> 
<path d="M87450 54060 L87450 53460" /> 
<path d="M87450 53460 L87850 53460" /> 
<path d="M88250 53460 L88650 53460" /> 
<path d="M88650 53460 L88650 54060" /> 
<path d="M88650 54060 L88250 54060" /> 
</g>
<g style="fill:#000000; fill-opacity:1.00; stroke:#000000; stroke-opacity:1.00; stroke-linecap:round; stroke-linejoin:round; stroke-width:0" 
   transform="translate(0.00 0.00) scale(1.00 1.00)">
<ellipse cx="92340" cy="50870" rx="750" ry="750"  /> 
</g>
<g style="fill:#FFFFFF; fill-opacity:1.00; stroke:#808000; stroke-opacity:1.00; stroke-linecap:round; stroke-linejoin:round; stroke-width:0" 
   transform="translate(0.00 0.00) scale(1.00 1.00)">
<ellipse cx="92340" cy="50870" rx="300" ry="300"  /> 
</g>
<g style="fill:#000000; fill-opacity:1.00; stroke:#000000; stroke-opacity:1.00; stroke-linecap:round; stroke-linejoin:round; stroke-width:0" 
   transform="translate(0.00 0.00) scale(1.00 1.00)">
<ellipse cx="90340" cy="50870" rx="750" ry="750"  /> 
</g>
<g style="fill:#FFFFFF; fill-opacity:1.00; stroke:#808000; stroke-opacity:1.00; stroke-linecap:round; stroke-linejoin:round; stroke-width:0" 
   transform="translate(0.00 0.00) scale(1.00 1.00)">
<ellipse cx="90340" cy="50870" rx="300" ry="300"  /> 
</g>
<g style="fill:#000000; fill-opacity:1.00; stroke:#000000; stroke-opacity:1.00; stroke-linecap:round; stroke-linejoin:round; stroke-width:0" 
   transform="translate(0.00 0.00) scale(1.00 1.00)">
<polygon style="fill-rule:evenodd; " 
points="95090,50120
95090,51620
93590,51620
93590,50120
" /> 
</g>
<g style="fill:#FFFFFF; fill-opacity:1.00; stroke:#808000; stroke-opacity:1.00; stroke-linecap:round; stroke-linejoin:round; stroke-width:0" 
   transform="translate(0.00 0.00) scale(1.00 1.00)">
<ellipse cx="94340" cy="50870" rx="300" ry="300"  /> 
</g>
<g style="fill:#000000; fill-opacity:1.00; stroke:#000000; stroke-opacity:1.00; stroke-linecap:round; stroke-linejoin:round; stroke-width:0" 
   transform="translate(0.00 0.00) scale(1.00 1.00)">
<ellipse cx="88340" cy="50870" rx="750" ry="750"  /> 
</g>
<g style="fill:#FFFFFF; fill-opacity:1.00; stroke:#808000; stroke-opacity:1.00; stroke-linecap:round; stroke-linejoin:round; stroke-width:0" 
   transform="translate(0.00 0.00) scale(1.00 1.00)">
<ellipse cx="88340" cy="50870" rx="300" ry="300"  /> 
</g>
<g style="fill:#FFFFFF; fill-opacity:1.00; stroke:#000000; stroke-opacity:1.00; stroke-linecap:round; stroke-linejoin:round; stroke-width:0" 
   transform="translate(0.00 0.00) scale(1.00 1.00)">
<path d="M91338 53370 L91342 53370" /> 
<path d="M91340 53368 L91340 53372" /> 
</g>
<g style="fill:#000000; fill-opacity:0.0; stroke:#000000; stroke-opacity:1.00; stroke-linecap:round; stroke-linejoin:round; stroke-width:120" 
   transform="translate(0.00 0.00) scale(1.00 1.00)">
<path d="M90876 53787 L90876 52757" /> 
<path d="M90876 52757 L91115 52757" /> 
<path d="M91115 52757 L91175 52806" /> 
<path d="M91175 52806 L91205 52855" /> 
<path d="M91205 52855 L91235 52953" /> 
<path d="M91235 52953 L91235 53100" /> 
<path d="M91235 53100 L91205 53198" /> 
<path d="M91205 53198 L91175 53247" /> 
<path d="M91175 53247 L91115 53296" /> 
<path d="M91115 53296 L90876 53296" /> 
<g style = "stroke-linecap:round;" > 
<path d="M90876 53296 L90876 53296" /> 
</g><path d="M91834 53787 L91475 53787" /> 
<g style = "stroke-linecap:round;" > 
<path d="M91475 53787 L91475 53787" /> 
</g><path d="M91655 53787 L91655 52757" /> 
<path d="M91655 52757 L91595 52904" /> 
<path d="M91595 52904 L91535 53002" /> 
<path d="M91535 53002 L91475 53051" /> 
<g style = "stroke-linecap:round;" > 
<path d="M91475 53051 L91475 53051" /> 
</g></g>
<g style="fill:#000000; fill-opacity:0.0; stroke:#000000; stroke-opacity:1.00; stroke-linecap:round; stroke-linejoin:round; stroke-width:0" 
   transform="translate(0.00 0.00) scale(1.00 1.00)">
<path d="M91338 48870 L91342 48870" /> 
<path d="M91340 48868 L91340 48872" /> 
</g>
<g style="fill:#000000; fill-opacity:0.0; stroke:#000000; stroke-opacity:1.00; stroke-linecap:round; stroke-linejoin:round; stroke-width:120" 
   transform="translate(0.00 0.00) scale(1.00 1.00)">
<path d="M90069 49056 L90040 49084" /> 
<path d="M90040 49084 L89954 49113" /> 
<path d="M89954 49113 L89897 49113" /> 
<path d="M89897 49113 L89812 49084" /> 
<path d="M89812 49084 L89754 49027" /> 
<path d="M89754 49027 L89726 48970" /> 
<path d="M89726 48970 L89697 48856" /> 
<path d="M89697 48856 L89697 48770" /> 
<path d="M89697 48770 L89726 48656" /> 
<path d="M89726 48656 L89754 48599" /> 
<path d="M89754 48599 L89812 48541" /> 
<path d="M89812 48541 L89897 48513" /> 
<path d="M89897 48513 L89954 48513" /> 
<path d="M89954 48513 L90040 48541" /> 
<path d="M90040 48541 L90069 48570" /> 
<g style = "stroke-linecap:round;" > 
<path d="M90069 48570 L90069 48570" /> 
</g><path d="M90440 48513 L90554 48513" /> 
<path d="M90554 48513 L90612 48541" /> 
<path d="M90612 48541 L90669 48599" /> 
<path d="M90669 48599 L90697 48713" /> 
<path d="M90697 48713 L90697 48913" /> 
<path d="M90697 48913 L90669 49027" /> 
<path d="M90669 49027 L90612 49084" /> 
<path d="M90612 49084 L90554 49113" /> 
<path d="M90554 49113 L90440 49113" /> 
<path d="M90440 49113 L90383 49084" /> 
<path d="M90383 49084 L90326 49027" /> 
<path d="M90326 49027 L90297 48913" /> 
<path d="M90297 48913 L90297 48713" /> 
<path d="M90297 48713 L90326 48599" /> 
<path d="M90326 48599 L90383 48541" /> 
<path d="M90383 48541 L90440 48513" /> 
<path d="M90955 49113 L90955 48513" /> 
<path d="M90955 48513 L91298 49113" /> 
<path d="M91298 49113 L91298 48513" /> 
<g style = "stroke-linecap:round;" > 
<path d="M91298 48513 L91298 48513" /> 
</g><path d="M91584 49113 L91584 48513" /> 
<path d="M91584 48513 L91927 49113" /> 
<path d="M91927 49113 L91927 48513" /> 
<g style = "stroke-linecap:round;" > 
<path d="M91927 48513 L91927 48513" /> 
</g><path d="M92070 49170 L92527 49170" /> 
<g style = "stroke-linecap:round;" > 
<path d="M92527 49170 L92527 49170" /> 
</g><path d="M92927 48713 L92927 49113" /> 
<g style = "stroke-linecap:round;" > 
<path d="M92927 49113 L92927 49113" /> 
</g><path d="M92784 48484 L92641 48913" /> 
<path d="M92641 48913 L93013 48913" /> 
<g style = "stroke-linecap:round;" > 
<path d="M93013 48913 L93013 48913" /> 
</g><path d="M95340 52370 L95340 49370" /> 
<path d="M87340 49370 L87340 52370" /> 
<path d="M87340 49870 L95340 49870" /> 
<path d="M95340 52370 L87340 52370" /> 
<path d="M95340 49370 L87340 49370" /> 
</g> 
</svg> 
