<?xml version="1.0" standalone="no"?>
<!DOCTYPE svg PUBLIC "-//W3C//DTD SVG 20010904//EN" 
"http://www.w3.org/TR/2001/REC-SVG-20010904/DTD/svg10.dtd"> 
<svg xmlns="http://www.w3.org/2000/svg" xmlns:xlink="http://www.w3.org/1999/xlink" 
    width="29.72cm" height="21.00cm" viewBox="0 0 117000 82670 "> 
<title>SVG Picture created as DomeLight-Front.svg </title>
<desc>Picture generated by wxSVG v0100 </desc>
<g style="fill:black; stroke:black; stroke-width:1">
</g>
<g style="fill:#FFFFFF; fill-opacity:1.00; stroke:#000000; stroke-opacity:1.00; stroke-linecap:round; stroke-linejoin:round; stroke-width:150" 
   transform="translate(0.00 0.00) scale(1.00 1.00)">
<path d="M86250 48910 L87480 48910" /> 
<path d="M86250 64200 L86250 48910" /> 
<path d="M96350 64200 L86250 64200" /> 
<path d="M96350 48900 L96350 64200" /> 
<path d="M86750 48900 L96350 48900" /> 
</g>
<g style="fill:#FFFFFF; fill-opacity:1.00; stroke:#000000; stroke-opacity:1.00; stroke-linecap:round; stroke-linejoin:round; stroke-width:200" 
   transform="translate(0.00 0.00) scale(1.00 1.00)">
<path d="M92000 58000 L92000 56615" /> 
<path d="M91856 54290 L92500 54290" /> 
<path d="M91784 54362 L91856 54290" /> 
<path d="M91784 56399 L91784 54362" /> 
<path d="M92000 56615 L91784 56399" /> 
<path d="M94135 57950 L92050 57950" /> 
<path d="M92050 57950 L92000 58000" /> 
<path d="M94374 59619 L94374 59240" /> 
<path d="M94135 59001 L94135 57950" /> 
<path d="M94374 59240 L94135 59001" /> 
<path d="M92500 54130 L94340 52290" /> 
<path d="M92500 54290 L92500 54130" /> 
<path d="M94340 52290 L94340 50870" /> 
<path d="M90000 54290 L89570 54290" /> 
<path d="M88425 53760 L89470 53760" /> 
<path d="M89470 53760 L90000 54290" /> 
<path d="M87675 53760 L87675 51535" /> 
<path d="M87675 51535 L88340 50870" /> 
<path d="M87675 56000 L87675 54850" /> 
<path d="M87675 54850 L87675 53760" /> 
<path d="M87545 62270 L87545 61695" /> 
<path d="M92340 49770 L92340 50870" /> 
<path d="M91894 49324 L92340 49770" /> 
<path d="M87406 49324 L91894 49324" /> 
<path d="M86966 49764 L87406 49324" /> 
<path d="M86966 61116 L86966 49764" /> 
<path d="M87545 61695 L86966 61116" /> 
<path d="M90000 55290 L89135 55290" /> 
<path d="M89135 55290 L88425 56000" /> 
<path d="M90000 54790 L89760 54790" /> 
<path d="M89760 54790 L89700 54850" /> 
<path d="M88425 54850 L89700 54850" /> 
<path d="M92500 54790 L93535 54790" /> 
<path d="M93535 54790 L94175 54150" /> 
<path d="M94175 55300 L92510 55300" /> 
<path d="M92510 55300 L92500 55290" /> 
<path d="M92500 55790 L93475 55790" /> 
<path d="M93475 55790 L94155 56470" /> 
<path d="M90000 55790 L89342 55790" /> 
<path d="M89342 55790 L89339 55787" /> 
<path d="M89345 62270 L89345 61575" /> 
<path d="M90700 60220 L90700 58000" /> 
<path d="M89345 61575 L90700 60220" /> 
<path d="M90700 58000 L90700 57715" /> 
<path d="M90000 57015 L90000 55790" /> 
<path d="M90700 57715 L90000 57015" /> 
<path d="M93374 59994 L92224 59994" /> 
<path d="M90340 52434 L90340 50870" /> 
<path d="M91200 53294 L90340 52434" /> 
<path d="M91200 56648 L91200 53294" /> 
<path d="M91350 56798 L91200 56648" /> 
<path d="M91350 59120 L91350 56798" /> 
<path d="M92224 59994 L91350 59120" /> 
<path d="M94374 60369 L94731 60369" /> 
<path d="M95010 60090 L95010 57950" /> 
<path d="M94731 60369 L95010 60090" /> 
<path d="M94885 57950 L94885 56490" /> 
<path d="M94925 56450 L94925 54150" /> 
<path d="M94885 56490 L94925 56450" /> 
</g>
<g style="fill:#FFFFFF; fill-opacity:1.00; stroke:#000000; stroke-opacity:1.00; stroke-linecap:round; stroke-linejoin:round; stroke-width:100" 
   transform="translate(0.00 0.00) scale(1.00 1.00)">
<path d="M96025 63875 L96025 63875" /> 
<path d="M95360 63875 L96025 63875" /> 
<path d="M95360 60090 L95360 63875" /> 
<path d="M95360 57950 L95360 60090" /> 
<path d="M95333 57816 L95360 57950" /> 
<path d="M95309 57780 L95333 57816" /> 
<path d="M95309 57626 L95309 57780" /> 
<path d="M95271 57534 L95309 57626" /> 
<path d="M95235 57498 L95271 57534" /> 
<path d="M95235 56942 L95235 57498" /> 
<path d="M95291 56886 L95235 56942" /> 
<path d="M95329 56795 L95291 56886" /> 
<path d="M95329 56696 L95329 56795" /> 
<path d="M95329 56146 L95329 56696" /> 
<path d="M95291 56054 L95329 56146" /> 
<path d="M95275 56038 L95291 56054" /> 
<path d="M95275 55752 L95275 56038" /> 
<path d="M95311 55716 L95275 55752" /> 
<path d="M95349 55625 L95311 55716" /> 
<path d="M95349 55526 L95349 55625" /> 
<path d="M95349 54976 L95349 55526" /> 
<path d="M95311 54884 L95349 54976" /> 
<path d="M95275 54848 L95311 54884" /> 
<path d="M95275 54602 L95275 54848" /> 
<path d="M95311 54566 L95275 54602" /> 
<path d="M95349 54475 L95311 54566" /> 
<path d="M95349 54376 L95349 54475" /> 
<path d="M95349 53826 L95349 54376" /> 
<path d="M95340 53804 L95349 53826" /> 
<path d="M95340 50982 L95340 53804" /> 
<path d="M95340 50758 L95340 50982" /> 
<path d="M95339 50169 L95340 50758" /> 
<path d="M95339 50070 L95339 50169" /> 
<path d="M95301 49979 L95339 50070" /> 
<path d="M95231 49909 L95301 49979" /> 
<path d="M95139 49871 L95231 49909" /> 
<path d="M94452 49870 L95139 49871" /> 
<path d="M94390 49932 L94452 49870" /> 
<path d="M94390 50820 L94390 49932" /> 
<path d="M95278 50820 L94390 50820" /> 
<path d="M95340 50758 L95278 50820" /> 
<path d="M95340 50982 L95340 50758" /> 
<path d="M95278 50920 L95340 50982" /> 
<path d="M94390 50920 L95278 50920" /> 
<path d="M94390 51808 L94390 50920" /> 
<path d="M94452 51870 L94390 51808" /> 
<path d="M95139 51869 L94452 51870" /> 
<path d="M95231 51831 L95139 51869" /> 
<path d="M95301 51761 L95231 51831" /> 
<path d="M95339 51670 L95301 51761" /> 
<path d="M95339 51571 L95339 51670" /> 
<path d="M95340 50982 L95339 51571" /> 
<path d="M95340 53804 L95340 50982" /> 
<path d="M95311 53734 L95340 53804" /> 
<path d="M95241 53664 L95311 53734" /> 
<path d="M95150 53626 L95241 53664" /> 
<path d="M95051 53626 L95150 53626" /> 
<path d="M94701 53626 L95051 53626" /> 
<path d="M94609 53664 L94701 53626" /> 
<path d="M94550 53723 L94609 53664" /> 
<path d="M94491 53664 L94550 53723" /> 
<path d="M94400 53626 L94491 53664" /> 
<path d="M94301 53626 L94400 53626" /> 
<path d="M93951 53626 L94301 53626" /> 
<path d="M93859 53664 L93951 53626" /> 
<path d="M93789 53734 L93859 53664" /> 
<path d="M93751 53825 L93789 53734" /> 
<path d="M93751 53924 L93751 53825" /> 
<path d="M93751 54079 L93751 53924" /> 
<path d="M93390 54440 L93751 54079" /> 
<path d="M92973 54440 L93390 54440" /> 
<path d="M92974 54439 L92973 54440" /> 
<path d="M92975 54402 L92974 54439" /> 
<path d="M92975 54178 L92975 54402" /> 
<path d="M92974 54141 L92975 54178" /> 
<path d="M92936 54049 L92974 54141" /> 
<path d="M92866 53979 L92936 54049" /> 
<path d="M92775 53941 L92866 53979" /> 
<path d="M92676 53941 L92775 53941" /> 
<path d="M92612 53940 L92676 53941" /> 
<path d="M92550 54002 L92612 53940" /> 
<path d="M92550 54240 L92550 54002" /> 
<path d="M92913 54240 L92550 54240" /> 
<path d="M92975 54178 L92913 54240" /> 
<path d="M92975 54402 L92975 54178" /> 
<path d="M92913 54340 L92975 54402" /> 
<path d="M92600 54340 L92913 54340" /> 
<path d="M92550 54340 L92600 54340" /> 
<path d="M92450 54340 L92550 54340" /> 
<path d="M92450 54240 L92450 54340" /> 
<path d="M92450 54002 L92450 54240" /> 
<path d="M92388 53940 L92450 54002" /> 
<path d="M92324 53941 L92388 53940" /> 
<path d="M92225 53941 L92324 53941" /> 
<path d="M92134 53979 L92225 53941" /> 
<path d="M92064 54049 L92134 53979" /> 
<path d="M92026 54141 L92064 54049" /> 
<path d="M92025 54178 L92026 54141" /> 
<path d="M92087 54240 L92025 54178" /> 
<path d="M92450 54240 L92087 54240" /> 
<path d="M92450 54340 L92450 54240" /> 
<path d="M92400 54340 L92450 54340" /> 
<path d="M92087 54340 L92400 54340" /> 
<path d="M92025 54402 L92087 54340" /> 
<path d="M92026 54439 L92025 54402" /> 
<path d="M92064 54531 L92026 54439" /> 
<path d="M92073 54540 L92064 54531" /> 
<path d="M92064 54549 L92073 54540" /> 
<path d="M92026 54640 L92064 54549" /> 
<path d="M92026 54739 L92026 54640" /> 
<path d="M92026 54939 L92026 54739" /> 
<path d="M92064 55031 L92026 54939" /> 
<path d="M92073 55040 L92064 55031" /> 
<path d="M92064 55049 L92073 55040" /> 
<path d="M92026 55140 L92064 55049" /> 
<path d="M92026 55239 L92026 55140" /> 
<path d="M92026 55439 L92026 55239" /> 
<path d="M92064 55531 L92026 55439" /> 
<path d="M92073 55540 L92064 55531" /> 
<path d="M92064 55549 L92073 55540" /> 
<path d="M92026 55640 L92064 55549" /> 
<path d="M92026 55739 L92026 55640" /> 
<path d="M92026 55939 L92026 55739" /> 
<path d="M92064 56031 L92026 55939" /> 
<path d="M92134 56101 L92064 56031" /> 
<path d="M92225 56139 L92134 56101" /> 
<path d="M92324 56139 L92225 56139" /> 
<path d="M92495 56139 L92324 56139" /> 
<path d="M92500 56140 L92495 56139" /> 
<path d="M93330 56140 L92500 56140" /> 
<path d="M93731 56540 L93330 56140" /> 
<path d="M93731 56794 L93731 56540" /> 
<path d="M93769 56886 L93731 56794" /> 
<path d="M93839 56956 L93769 56886" /> 
<path d="M93930 56994 L93839 56956" /> 
<path d="M94029 56994 L93930 56994" /> 
<path d="M94379 56994 L94029 56994" /> 
<path d="M94471 56956 L94379 56994" /> 
<path d="M94530 56897 L94471 56956" /> 
<path d="M94535 56902 L94530 56897" /> 
<path d="M94535 57498 L94535 56902" /> 
<path d="M94510 57523 L94535 57498" /> 
<path d="M94451 57464 L94510 57523" /> 
<path d="M94359 57426 L94451 57464" /> 
<path d="M94247 57425 L94359 57426" /> 
<path d="M94185 57487 L94247 57425" /> 
<path d="M94185 57850 L94185 57487" /> 
<path d="M94185 57900 L94185 57850" /> 
<path d="M94185 58000 L94185 57900" /> 
<path d="M94185 58050 L94185 58000" /> 
<path d="M94185 58413 L94185 58050" /> 
<path d="M94247 58475 L94185 58413" /> 
<path d="M94359 58474 L94247 58475" /> 
<path d="M94451 58436 L94359 58474" /> 
<path d="M94510 58377 L94451 58436" /> 
<path d="M94569 58436 L94510 58377" /> 
<path d="M94660 58474 L94569 58436" /> 
<path d="M94660 59248 L94660 58474" /> 
<path d="M94621 59232 L94660 59248" /> 
<path d="M94522 59232 L94621 59232" /> 
<path d="M94486 59231 L94522 59232" /> 
<path d="M94424 59293 L94486 59231" /> 
<path d="M94424 59519 L94424 59293" /> 
<path d="M94424 59569 L94424 59519" /> 
<path d="M94424 59669 L94424 59569" /> 
<path d="M94324 59669 L94424 59669" /> 
<path d="M94324 59569 L94324 59669" /> 
<path d="M94324 59293 L94324 59569" /> 
<path d="M94262 59231 L94324 59293" /> 
<path d="M94226 59232 L94262 59231" /> 
<path d="M94127 59232 L94226 59232" /> 
<path d="M94085 59249 L94127 59232" /> 
<path d="M94085 58413 L94085 59249" /> 
<path d="M94085 58000 L94085 58413" /> 
<path d="M94085 57900 L94085 58000" /> 
<path d="M94085 57487 L94085 57900" /> 
<path d="M94023 57425 L94085 57487" /> 
<path d="M93911 57426 L94023 57425" /> 
<path d="M93819 57464 L93911 57426" /> 
<path d="M93749 57534 L93819 57464" /> 
<path d="M93711 57625 L93749 57534" /> 
<path d="M93711 57724 L93711 57625" /> 
<path d="M93710 57838 L93711 57724" /> 
<path d="M93772 57900 L93710 57838" /> 
<path d="M94085 57900 L93772 57900" /> 
<path d="M94085 58000 L94085 57900" /> 
<path d="M93772 58000 L94085 58000" /> 
<path d="M93710 58062 L93772 58000" /> 
<path d="M93711 58176 L93710 58062" /> 
<path d="M93711 58275 L93711 58176" /> 
<path d="M93749 58366 L93711 58275" /> 
<path d="M93819 58436 L93749 58366" /> 
<path d="M93911 58474 L93819 58436" /> 
<path d="M94023 58475 L93911 58474" /> 
<path d="M94085 58413 L94023 58475" /> 
<path d="M94085 59249 L94085 58413" /> 
<path d="M94036 59270 L94085 59249" /> 
<path d="M93966 59340 L94036 59270" /> 
<path d="M93928 59432 L93966 59340" /> 
<path d="M93927 59507 L93928 59432" /> 
<path d="M93989 59569 L93927 59507" /> 
<path d="M94324 59569 L93989 59569" /> 
<path d="M94324 59669 L94324 59569" /> 
<path d="M94274 59669 L94324 59669" /> 
<path d="M93989 59669 L94274 59669" /> 
<path d="M93927 59731 L93989 59669" /> 
<path d="M93928 59806 L93927 59731" /> 
<path d="M93966 59898 L93928 59806" /> 
<path d="M94036 59968 L93966 59898" /> 
<path d="M94098 59994 L94036 59968" /> 
<path d="M94036 60020 L94098 59994" /> 
<path d="M93966 60090 L94036 60020" /> 
<path d="M93928 60181 L93966 60090" /> 
<path d="M93928 60280 L93928 60181" /> 
<path d="M93928 60556 L93928 60280" /> 
<path d="M93966 60648 L93928 60556" /> 
<path d="M94036 60718 L93966 60648" /> 
<path d="M94127 60756 L94036 60718" /> 
<path d="M94226 60756 L94127 60756" /> 
<path d="M94620 60756 L94226 60756" /> 
<path d="M94709 60719 L94620 60756" /> 
<path d="M94731 60719 L94709 60719" /> 
<path d="M94731 60718 L94731 60719" /> 
<path d="M94865 60692 L94731 60718" /> 
<path d="M94978 60616 L94865 60692" /> 
<path d="M95257 60338 L94978 60616" /> 
<path d="M95257 60337 L95257 60338" /> 
<path d="M95333 60224 L95257 60337" /> 
<path d="M95359 60090 L95333 60224" /> 
<path d="M95360 60090 L95359 60090" /> 
<path d="M95360 63875 L95360 60090" /> 
<path d="M88895 63875 L95360 63875" /> 
<path d="M88895 62382 L88895 63875" /> 
<path d="M88895 62158 L88895 62382" /> 
<path d="M88894 61919 L88895 62158" /> 
<path d="M88894 61820 L88894 61919" /> 
<path d="M88856 61729 L88894 61820" /> 
<path d="M88786 61659 L88856 61729" /> 
<path d="M88694 61621 L88786 61659" /> 
<path d="M88557 61620 L88694 61621" /> 
<path d="M88495 61682 L88557 61620" /> 
<path d="M88495 62220 L88495 61682" /> 
<path d="M88833 62220 L88495 62220" /> 
<path d="M88895 62158 L88833 62220" /> 
<path d="M88895 62382 L88895 62158" /> 
<path d="M88833 62320 L88895 62382" /> 
<path d="M88495 62320 L88833 62320" /> 
<path d="M88495 62858 L88495 62320" /> 
<path d="M88557 62920 L88495 62858" /> 
<path d="M88694 62919 L88557 62920" /> 
<path d="M88786 62881 L88694 62919" /> 
<path d="M88856 62811 L88786 62881" /> 
<path d="M88894 62720 L88856 62811" /> 
<path d="M88894 62621 L88894 62720" /> 
<path d="M88895 62382 L88894 62621" /> 
<path d="M88895 63875 L88895 62382" /> 
<path d="M88395 63875 L88895 63875" /> 
<path d="M88395 62858 L88395 63875" /> 
<path d="M88395 62320 L88395 62858" /> 
<path d="M88395 62220 L88395 62320" /> 
<path d="M88395 61682 L88395 62220" /> 
<path d="M88395 60258 L88395 61682" /> 
<path d="M88395 59720 L88395 60258" /> 
<path d="M88395 59620 L88395 59720" /> 
<path d="M88395 59082 L88395 59620" /> 
<path d="M88333 59020 L88395 59082" /> 
<path d="M87676 59021 L88333 59020" /> 
<path d="M87584 59059 L87676 59021" /> 
<path d="M87514 59129 L87584 59059" /> 
<path d="M87476 59220 L87514 59129" /> 
<path d="M87476 59319 L87476 59220" /> 
<path d="M87475 59558 L87476 59319" /> 
<path d="M87537 59620 L87475 59558" /> 
<path d="M88395 59620 L87537 59620" /> 
<path d="M88395 59720 L88395 59620" /> 
<path d="M87537 59720 L88395 59720" /> 
<path d="M87475 59782 L87537 59720" /> 
<path d="M87476 60021 L87475 59782" /> 
<path d="M87476 60120 L87476 60021" /> 
<path d="M87514 60211 L87476 60120" /> 
<path d="M87584 60281 L87514 60211" /> 
<path d="M87676 60319 L87584 60281" /> 
<path d="M88333 60320 L87676 60319" /> 
<path d="M88395 60258 L88333 60320" /> 
<path d="M88395 61682 L88395 60258" /> 
<path d="M88333 61620 L88395 61682" /> 
<path d="M88196 61621 L88333 61620" /> 
<path d="M88104 61659 L88196 61621" /> 
<path d="M88034 61729 L88104 61659" /> 
<path d="M87996 61820 L88034 61729" /> 
<path d="M87996 61919 L87996 61820" /> 
<path d="M87995 62158 L87996 61919" /> 
<path d="M88057 62220 L87995 62158" /> 
<path d="M88395 62220 L88057 62220" /> 
<path d="M88395 62320 L88395 62220" /> 
<path d="M88057 62320 L88395 62320" /> 
<path d="M87995 62382 L88057 62320" /> 
<path d="M87996 62621 L87995 62382" /> 
<path d="M87996 62720 L87996 62621" /> 
<path d="M88034 62811 L87996 62720" /> 
<path d="M88104 62881 L88034 62811" /> 
<path d="M88196 62919 L88104 62881" /> 
<path d="M88333 62920 L88196 62919" /> 
<path d="M88395 62858 L88333 62920" /> 
<path d="M88395 63875 L88395 62858" /> 
<path d="M86575 63875 L88395 63875" /> 
<path d="M86575 49235 L86575 63875" /> 
<path d="M87000 49235 L86575 49235" /> 
<path d="M86719 49517 L87000 49235" /> 
<path d="M86643 49630 L86719 49517" /> 
<path d="M86616 49764 L86643 49630" /> 
<path d="M86616 61116 L86616 49764" /> 
<path d="M86643 61250 L86616 61116" /> 
<path d="M86719 61363 L86643 61250" /> 
<path d="M87119 61764 L86719 61363" /> 
<path d="M87096 61820 L87119 61764" /> 
<path d="M87096 61919 L87096 61820" /> 
<path d="M87096 62719 L87096 61919" /> 
<path d="M87134 62811 L87096 62719" /> 
<path d="M87204 62881 L87134 62811" /> 
<path d="M87295 62919 L87204 62881" /> 
<path d="M87394 62919 L87295 62919" /> 
<path d="M87794 62919 L87394 62919" /> 
<path d="M87886 62881 L87794 62919" /> 
<path d="M87956 62811 L87886 62881" /> 
<path d="M87994 62720 L87956 62811" /> 
<path d="M87994 62621 L87994 62720" /> 
<path d="M87994 61821 L87994 62621" /> 
<path d="M87956 61729 L87994 61821" /> 
<path d="M87888 61661 L87956 61729" /> 
<path d="M87887 61660 L87888 61661" /> 
<path d="M87868 61561 L87887 61660" /> 
<path d="M87792 61448 L87868 61561" /> 
<path d="M87792 61447 L87792 61448" /> 
<path d="M87316 60971 L87792 61447" /> 
<path d="M87316 56443 L87316 60971" /> 
<path d="M87359 56486 L87316 56443" /> 
<path d="M87450 56524 L87359 56486" /> 
<path d="M87549 56524 L87450 56524" /> 
<path d="M87899 56524 L87549 56524" /> 
<path d="M87991 56486 L87899 56524" /> 
<path d="M88050 56427 L87991 56486" /> 
<path d="M88109 56486 L88050 56427" /> 
<path d="M88200 56524 L88109 56486" /> 
<path d="M88299 56524 L88200 56524" /> 
<path d="M88649 56524 L88299 56524" /> 
<path d="M88741 56486 L88649 56524" /> 
<path d="M88811 56416 L88741 56486" /> 
<path d="M88849 56325 L88811 56416" /> 
<path d="M88849 56226 L88849 56325" /> 
<path d="M88849 56070 L88849 56226" /> 
<path d="M89013 55906 L88849 56070" /> 
<path d="M89016 55921 L89013 55906" /> 
<path d="M89092 56034 L89016 55921" /> 
<path d="M89094 56037 L89092 56034" /> 
<path d="M89095 56037 L89094 56037" /> 
<path d="M89208 56113 L89095 56037" /> 
<path d="M89342 56140 L89208 56113" /> 
<path d="M89650 56140 L89342 56140" /> 
<path d="M89650 57015 L89650 56140" /> 
<path d="M89677 57149 L89650 57015" /> 
<path d="M89753 57262 L89677 57149" /> 
<path d="M90151 57660 L89753 57262" /> 
<path d="M90151 58449 L90151 57660" /> 
<path d="M90189 58541 L90151 58449" /> 
<path d="M90259 58611 L90189 58541" /> 
<path d="M90350 58649 L90259 58611" /> 
<path d="M90350 60075 L90350 58649" /> 
<path d="M89415 61010 L90350 60075" /> 
<path d="M89415 59782 L89415 61010" /> 
<path d="M89415 59558 L89415 59782" /> 
<path d="M89414 59319 L89415 59558" /> 
<path d="M89414 59220 L89414 59319" /> 
<path d="M89376 59129 L89414 59220" /> 
<path d="M89306 59059 L89376 59129" /> 
<path d="M89214 59021 L89306 59059" /> 
<path d="M88557 59020 L89214 59021" /> 
<path d="M88495 59082 L88557 59020" /> 
<path d="M88495 59620 L88495 59082" /> 
<path d="M89353 59620 L88495 59620" /> 
<path d="M89415 59558 L89353 59620" /> 
<path d="M89415 59782 L89415 59558" /> 
<path d="M89353 59720 L89415 59782" /> 
<path d="M88495 59720 L89353 59720" /> 
<path d="M88495 60258 L88495 59720" /> 
<path d="M88557 60320 L88495 60258" /> 
<path d="M89214 60319 L88557 60320" /> 
<path d="M89306 60281 L89214 60319" /> 
<path d="M89376 60211 L89306 60281" /> 
<path d="M89414 60120 L89376 60211" /> 
<path d="M89414 60021 L89414 60120" /> 
<path d="M89415 59782 L89414 60021" /> 
<path d="M89415 61010 L89415 59782" /> 
<path d="M89098 61328 L89415 61010" /> 
<path d="M89022 61441 L89098 61328" /> 
<path d="M88995 61575 L89022 61441" /> 
<path d="M88995 61668 L88995 61575" /> 
<path d="M88934 61729 L88995 61668" /> 
<path d="M88896 61820 L88934 61729" /> 
<path d="M88896 61919 L88896 61820" /> 
<path d="M88896 62719 L88896 61919" /> 
<path d="M88934 62811 L88896 62719" /> 
<path d="M89004 62881 L88934 62811" /> 
<path d="M89095 62919 L89004 62881" /> 
<path d="M89194 62919 L89095 62919" /> 
<path d="M89594 62919 L89194 62919" /> 
<path d="M89686 62881 L89594 62919" /> 
<path d="M89756 62811 L89686 62881" /> 
<path d="M89794 62720 L89756 62811" /> 
<path d="M89794 62621 L89794 62720" /> 
<path d="M89794 61821 L89794 62621" /> 
<path d="M89756 61729 L89794 61821" /> 
<path d="M89720 61693 L89756 61729" /> 
<path d="M90947 60468 L89720 61693" /> 
<path d="M90947 60467 L90947 60468" /> 
<path d="M91023 60354 L90947 60467" /> 
<path d="M91049 60220 L91023 60354" /> 
<path d="M91050 60220 L91049 60220" /> 
<path d="M91050 59288 L91050 60220" /> 
<path d="M91103 59367 L91050 59288" /> 
<path d="M91976 60241 L91103 59367" /> 
<path d="M91977 60241 L91976 60241" /> 
<path d="M92090 60317 L91977 60241" /> 
<path d="M92224 60344 L92090 60317" /> 
<path d="M93038 60344 L92224 60344" /> 
<path d="M93127 60381 L93038 60344" /> 
<path d="M93226 60381 L93127 60381" /> 
<path d="M93620 60381 L93226 60381" /> 
<path d="M93712 60343 L93620 60381" /> 
<path d="M93782 60273 L93712 60343" /> 
<path d="M93820 60182 L93782 60273" /> 
<path d="M93820 60083 L93820 60182" /> 
<path d="M93820 59807 L93820 60083" /> 
<path d="M93782 59715 L93820 59807" /> 
<path d="M93712 59645 L93782 59715" /> 
<path d="M93621 59607 L93712 59645" /> 
<path d="M93522 59607 L93621 59607" /> 
<path d="M93128 59607 L93522 59607" /> 
<path d="M93038 59644 L93128 59607" /> 
<path d="M92550 59644 L93038 59644" /> 
<path d="M92550 58112 L92550 59644" /> 
<path d="M92550 57888 L92550 58112" /> 
<path d="M92549 57649 L92550 57888" /> 
<path d="M92549 57550 L92549 57649" /> 
<path d="M92511 57459 L92549 57550" /> 
<path d="M92441 57389 L92511 57459" /> 
<path d="M92349 57351 L92441 57389" /> 
<path d="M92112 57350 L92349 57351" /> 
<path d="M92050 57412 L92112 57350" /> 
<path d="M92050 57950 L92050 57412" /> 
<path d="M92488 57950 L92050 57950" /> 
<path d="M92550 57888 L92488 57950" /> 
<path d="M92550 58112 L92550 57888" /> 
<path d="M92488 58050 L92550 58112" /> 
<path d="M92050 58050 L92488 58050" /> 
<path d="M92050 58588 L92050 58050" /> 
<path d="M92112 58650 L92050 58588" /> 
<path d="M92349 58649 L92112 58650" /> 
<path d="M92441 58611 L92349 58649" /> 
<path d="M92511 58541 L92441 58611" /> 
<path d="M92549 58450 L92511 58541" /> 
<path d="M92549 58351 L92549 58450" /> 
<path d="M92550 58112 L92549 58351" /> 
<path d="M92550 59644 L92550 58112" /> 
<path d="M92368 59644 L92550 59644" /> 
<path d="M91700 58975 L92368 59644" /> 
<path d="M91700 58649 L91700 58975" /> 
<path d="M91888 58650 L91700 58649" /> 
<path d="M91950 58588 L91888 58650" /> 
<path d="M91950 58100 L91950 58588" /> 
<path d="M91950 58050 L91950 58100" /> 
<path d="M91950 57950 L91950 58050" /> 
<path d="M91950 57900 L91950 57950" /> 
<path d="M91950 57412 L91950 57900" /> 
<path d="M91888 57350 L91950 57412" /> 
<path d="M91700 57350 L91888 57350" /> 
<path d="M91700 56798 L91700 57350" /> 
<path d="M91673 56664 L91700 56798" /> 
<path d="M91597 56551 L91673 56664" /> 
<path d="M91597 56550 L91597 56551" /> 
<path d="M91550 56503 L91597 56550" /> 
<path d="M91550 53294 L91550 56503" /> 
<path d="M91523 53160 L91550 53294" /> 
<path d="M91447 53047 L91523 53160" /> 
<path d="M91447 53046 L91447 53047" /> 
<path d="M90690 52289 L91447 53046" /> 
<path d="M90690 51807 L90690 52289" /> 
<path d="M90906 51718 L90690 51807" /> 
<path d="M91187 51437 L90906 51718" /> 
<path d="M91340 51070 L91187 51437" /> 
<path d="M91492 51436 L91340 51070" /> 
<path d="M91773 51717 L91492 51436" /> 
<path d="M92140 51870 L91773 51717" /> 
<path d="M92538 51870 L92140 51870" /> 
<path d="M92906 51718 L92538 51870" /> 
<path d="M93187 51437 L92906 51718" /> 
<path d="M93340 51070 L93187 51437" /> 
<path d="M93341 51571 L93340 51070" /> 
<path d="M93341 51670 L93341 51571" /> 
<path d="M93379 51761 L93341 51670" /> 
<path d="M93449 51831 L93379 51761" /> 
<path d="M93541 51869 L93449 51831" /> 
<path d="M94228 51870 L93541 51869" /> 
<path d="M94290 51808 L94228 51870" /> 
<path d="M94290 50920 L94290 51808" /> 
<path d="M93402 50920 L94290 50920" /> 
<path d="M93340 50982 L93402 50920" /> 
<path d="M93340 50758 L93340 50982" /> 
<path d="M93402 50820 L93340 50758" /> 
<path d="M94290 50820 L93402 50820" /> 
<path d="M94290 49932 L94290 50820" /> 
<path d="M94228 49870 L94290 49932" /> 
<path d="M93541 49871 L94228 49870" /> 
<path d="M93449 49909 L93541 49871" /> 
<path d="M93379 49979 L93449 49909" /> 
<path d="M93341 50070 L93379 49979" /> 
<path d="M93341 50169 L93341 50070" /> 
<path d="M93340 50672 L93341 50169" /> 
<path d="M93188 50304 L93340 50672" /> 
<path d="M92907 50023 L93188 50304" /> 
<path d="M92690 49932 L92907 50023" /> 
<path d="M92690 49770 L92690 49932" /> 
<path d="M92689 49769 L92690 49770" /> 
<path d="M92663 49636 L92689 49769" /> 
<path d="M92587 49523 L92663 49636" /> 
<path d="M92587 49522 L92587 49523" /> 
<path d="M92289 49225 L92587 49522" /> 
<path d="M96025 49225 L92289 49225" /> 
<path d="M96025 63875 L96025 49225" /> 
</g>
<g style="fill:#000000; fill-opacity:1.00; stroke:#000000; stroke-opacity:1.00; stroke-linecap:round; stroke-linejoin:round; stroke-width:0" 
   transform="translate(0.00 0.00) scale(1.00 1.00)">
<polygon style="fill-rule:evenodd; " 
points="95333,57816
95309,57780
95309,57626
95271,57534
95235,57498
95235,56942
95291,56886
95329,56795
95329,56696
95329,56146
95291,56054
95275,56038
95275,55752
95311,55716
95349,55625
95349,55526
95349,54976
95311,54884
95275,54848
95275,54602
95311,54566
95349,54475
95349,54376
95349,53826
95340,53804
95340,50982
95340,50758
95339,50169
95339,50070
95301,49979
95231,49909
95139,49871
94452,49870
94390,49932
94390,50820
95278,50820
95340,50758
95340,50982
95278,50920
94390,50920
94390,51808
94452,51870
95139,51869
95231,51831
95301,51761
95339,51670
95339,51571
95340,50982
95340,53804
95311,53734
95241,53664
95150,53626
95051,53626
94701,53626
94609,53664
94550,53723
94491,53664
94400,53626
94301,53626
93951,53626
93859,53664
93789,53734
93751,53825
93751,53924
93751,54079
93390,54440
92973,54440
92974,54439
92975,54402
92975,54178
92974,54141
92936,54049
92866,53979
92775,53941
92676,53941
92612,53940
92550,54002
92550,54240
92913,54240
92975,54178
92975,54402
92913,54340
92600,54340
92550,54340
92450,54340
92450,54240
92450,54002
92388,53940
92324,53941
92225,53941
92134,53979
92064,54049
92026,54141
92025,54178
92087,54240
92450,54240
92450,54340
92400,54340
92087,54340
92025,54402
92026,54439
92064,54531
92073,54540
92064,54549
92026,54640
92026,54739
92026,54939
92064,55031
92073,55040
92064,55049
92026,55140
92026,55239
92026,55439
92064,55531
92073,55540
92064,55549
92026,55640
92026,55739
92026,55939
92064,56031
92134,56101
92225,56139
92324,56139
92495,56139
92500,56140
93330,56140
93731,56540
93731,56794
93769,56886
93839,56956
93930,56994
94029,56994
94379,56994
94471,56956
94530,56897
94535,56902
94535,57498
94510,57523
94451,57464
94359,57426
94247,57425
94185,57487
94185,57850
94185,57900
94185,58000
94185,58050
94185,58413
94247,58475
94359,58474
94451,58436
94510,58377
94569,58436
94660,58474
94660,59248
94621,59232
94522,59232
94486,59231
94424,59293
94424,59519
94424,59569
94424,59669
94324,59669
94324,59569
94324,59293
94262,59231
94226,59232
94127,59232
94085,59249
94085,58413
94085,58000
94085,57900
94085,57487
94023,57425
93911,57426
93819,57464
93749,57534
93711,57625
93711,57724
93710,57838
93772,57900
94085,57900
94085,58000
93772,58000
93710,58062
93711,58176
93711,58275
93749,58366
93819,58436
93911,58474
94023,58475
94085,58413
94085,59249
94036,59270
93966,59340
93928,59432
93927,59507
93989,59569
94324,59569
94324,59669
94274,59669
93989,59669
93927,59731
93928,59806
93966,59898
94036,59968
94098,59994
94036,60020
93966,60090
93928,60181
93928,60280
93928,60556
93966,60648
94036,60718
94127,60756
94226,60756
94620,60756
94709,60719
94731,60719
94731,60718
94865,60692
94978,60616
95257,60338
95257,60337
95333,60224
95359,60090
95360,60090
95360,63875
88895,63875
88895,62382
88895,62158
88894,61919
88894,61820
88856,61729
88786,61659
88694,61621
88557,61620
88495,61682
88495,62220
88833,62220
88895,62158
88895,62382
88833,62320
88495,62320
88495,62858
88557,62920
88694,62919
88786,62881
88856,62811
88894,62720
88894,62621
88895,62382
88895,63875
88395,63875
88395,62858
88395,62320
88395,62220
88395,61682
88395,60258
88395,59720
88395,59620
88395,59082
88333,59020
87676,59021
87584,59059
87514,59129
87476,59220
87476,59319
87475,59558
87537,59620
88395,59620
88395,59720
87537,59720
87475,59782
87476,60021
87476,60120
87514,60211
87584,60281
87676,60319
88333,60320
88395,60258
88395,61682
88333,61620
88196,61621
88104,61659
88034,61729
87996,61820
87996,61919
87995,62158
88057,62220
88395,62220
88395,62320
88057,62320
87995,62382
87996,62621
87996,62720
88034,62811
88104,62881
88196,62919
88333,62920
88395,62858
88395,63875
86575,63875
86575,49235
87000,49235
86719,49517
86643,49630
86616,49764
86616,61116
86643,61250
86719,61363
87119,61764
87096,61820
87096,61919
87096,62719
87134,62811
87204,62881
87295,62919
87394,62919
87794,62919
87886,62881
87956,62811
87994,62720
87994,62621
87994,61821
87956,61729
87888,61661
87887,61660
87868,61561
87792,61448
87792,61447
87316,60971
87316,56443
87359,56486
87450,56524
87549,56524
87899,56524
87991,56486
88050,56427
88109,56486
88200,56524
88299,56524
88649,56524
88741,56486
88811,56416
88849,56325
88849,56226
88849,56070
89013,55906
89016,55921
89092,56034
89094,56037
89095,56037
89208,56113
89342,56140
89650,56140
89650,57015
89677,57149
89753,57262
90151,57660
90151,58449
90189,58541
90259,58611
90350,58649
90350,60075
89415,61010
89415,59782
89415,59558
89414,59319
89414,59220
89376,59129
89306,59059
89214,59021
88557,59020
88495,59082
88495,59620
89353,59620
89415,59558
89415,59782
89353,59720
88495,59720
88495,60258
88557,60320
89214,60319
89306,60281
89376,60211
89414,60120
89414,60021
89415,59782
89415,61010
89098,61328
89022,61441
88995,61575
88995,61668
88934,61729
88896,61820
88896,61919
88896,62719
88934,62811
89004,62881
89095,62919
89194,62919
89594,62919
89686,62881
89756,62811
89794,62720
89794,62621
89794,61821
89756,61729
89720,61693
90947,60468
90947,60467
91023,60354
91049,60220
91050,60220
91050,59288
91103,59367
91976,60241
91977,60241
92090,60317
92224,60344
93038,60344
93127,60381
93226,60381
93620,60381
93712,60343
93782,60273
93820,60182
93820,60083
93820,59807
93782,59715
93712,59645
93621,59607
93522,59607
93128,59607
93038,59644
92550,59644
92550,58112
92550,57888
92549,57649
92549,57550
92511,57459
92441,57389
92349,57351
92112,57350
92050,57412
92050,57950
92488,57950
92550,57888
92550,58112
92488,58050
92050,58050
92050,58588
92112,58650
92349,58649
92441,58611
92511,58541
92549,58450
92549,58351
92550,58112
92550,59644
92368,59644
91700,58975
91700,58649
91888,58650
91950,58588
91950,58100
91950,58050
91950,57950
91950,57900
91950,57412
91888,57350
91700,57350
91700,56798
91673,56664
91597,56551
91597,56550
91550,56503
91550,53294
91523,53160
91447,53047
91447,53046
90690,52289
90690,51807
90906,51718
91187,51437
91340,51070
91492,51436
91773,51717
92140,51870
92538,51870
92906,51718
93187,51437
93340,51070
93341,51571
93341,51670
93379,51761
93449,51831
93541,51869
94228,51870
94290,51808
94290,50920
93402,50920
93340,50982
93340,50758
93402,50820
94290,50820
94290,49932
94228,49870
93541,49871
93449,49909
93379,49979
93341,50070
93341,50169
93340,50672
93188,50304
92907,50023
92690,49932
92690,49770
92689,49769
92663,49636
92587,49523
92587,49522
92289,49225
96025,49225
96025,63875
96025,63875
95360,63875
95360,60090
95360,57950
" /> 
<polygon style="fill-rule:evenodd; " 
points="93571,60132
93177,60132
93177,59856
93571,59856
" /> 
<polygon style="fill-rule:evenodd; " 
points="94571,59757
94177,59757
94177,59481
94571,59481
" /> 
<polygon style="fill-rule:evenodd; " 
points="94571,60507
94177,60507
94177,60231
94571,60231
" /> 
<polygon style="fill-rule:evenodd; " 
points="87725,60070
87725,59270
89165,59270
89165,60070
" /> 
<polygon style="fill-rule:evenodd; " 
points="88245,62670
88245,61870
88645,61870
88645,62670
" /> 
<polygon style="fill-rule:evenodd; " 
points="89145,62670
89145,61870
89545,61870
89545,62670
" /> 
<polygon style="fill-rule:evenodd; " 
points="87345,62670
87345,61870
87745,61870
87745,62670
" /> 
<polygon style="fill-rule:evenodd; " 
points="90225,55890
89775,55890
89775,55690
90225,55690
" /> 
<polygon style="fill-rule:evenodd; " 
points="90225,55390
89775,55390
89775,55190
90225,55190
" /> 
<polygon style="fill-rule:evenodd; " 
points="90225,54890
89775,54890
89775,54690
90225,54690
" /> 
<polygon style="fill-rule:evenodd; " 
points="90225,54390
89775,54390
89775,54190
90225,54190
" /> 
<polygon style="fill-rule:evenodd; " 
points="92725,54390
92275,54390
92275,54190
92725,54190
" /> 
<polygon style="fill-rule:evenodd; " 
points="92725,54890
92275,54890
92275,54690
92725,54690
" /> 
<polygon style="fill-rule:evenodd; " 
points="92725,55390
92275,55390
92275,55190
92725,55190
" /> 
<polygon style="fill-rule:evenodd; " 
points="92725,55890
92275,55890
92275,55690
92725,55690
" /> 
<polygon style="fill-rule:evenodd; " 
points="90400,58400
90400,57600
91000,57600
91000,58400
" /> 
<polygon style="fill-rule:evenodd; " 
points="91700,58400
91700,57600
92300,57600
92300,58400
" /> 
<polygon style="fill-rule:evenodd; " 
points="95060,57675
95060,58225
94710,58225
94710,57675
" /> 
<polygon style="fill-rule:evenodd; " 
points="94310,57675
94310,58225
93960,58225
93960,57675
" /> 
<polygon style="fill-rule:evenodd; " 
points="95080,56195
95080,56745
94730,56745
94730,56195
" /> 
<polygon style="fill-rule:evenodd; " 
points="94330,56195
94330,56745
93980,56745
93980,56195
" /> 
<polygon style="fill-rule:evenodd; " 
points="95100,53875
95100,54425
94750,54425
94750,53875
" /> 
<polygon style="fill-rule:evenodd; " 
points="94350,53875
94350,54425
94000,54425
94000,53875
" /> 
<polygon style="fill-rule:evenodd; " 
points="95100,55025
95100,55575
94750,55575
94750,55025
" /> 
<polygon style="fill-rule:evenodd; " 
points="94350,55025
94350,55575
94000,55575
94000,55025
" /> 
<polygon style="fill-rule:evenodd; " 
points="87500,56275
87500,55725
87850,55725
87850,56275
" /> 
<polygon style="fill-rule:evenodd; " 
points="88250,56275
88250,55725
88600,55725
88600,56275
" /> 
<polygon style="fill-rule:evenodd; " 
points="87500,55125
87500,54575
87850,54575
87850,55125
" /> 
<polygon style="fill-rule:evenodd; " 
points="88250,55125
88250,54575
88600,54575
88600,55125
" /> 
<polygon style="fill-rule:evenodd; " 
points="87500,54035
87500,53485
87850,53485
87850,54035
" /> 
<polygon style="fill-rule:evenodd; " 
points="88250,54035
88250,53485
88600,53485
88600,54035
" /> 
<ellipse cx="92340" cy="50870" rx="750" ry="750"  /> 
</g>
<g style="fill:#FFFFFF; fill-opacity:1.00; stroke:#808000; stroke-opacity:1.00; stroke-linecap:round; stroke-linejoin:round; stroke-width:0" 
   transform="translate(0.00 0.00) scale(1.00 1.00)">
<ellipse cx="92340" cy="50870" rx="300" ry="300"  /> 
</g>
<g style="fill:#000000; fill-opacity:1.00; stroke:#000000; stroke-opacity:1.00; stroke-linecap:round; stroke-linejoin:round; stroke-width:0" 
   transform="translate(0.00 0.00) scale(1.00 1.00)">
<ellipse cx="90340" cy="50870" rx="750" ry="750"  /> 
</g>
<g style="fill:#FFFFFF; fill-opacity:1.00; stroke:#808000; stroke-opacity:1.00; stroke-linecap:round; stroke-linejoin:round; stroke-width:0" 
   transform="translate(0.00 0.00) scale(1.00 1.00)">
<ellipse cx="90340" cy="50870" rx="300" ry="300"  /> 
</g>
<g style="fill:#000000; fill-opacity:1.00; stroke:#000000; stroke-opacity:1.00; stroke-linecap:round; stroke-linejoin:round; stroke-width:0" 
   transform="translate(0.00 0.00) scale(1.00 1.00)">
<polygon style="fill-rule:evenodd; " 
points="95090,50120
95090,51620
93590,51620
93590,50120
" /> 
</g>
<g style="fill:#FFFFFF; fill-opacity:1.00; stroke:#808000; stroke-opacity:1.00; stroke-linecap:round; stroke-linejoin:round; stroke-width:0" 
   transform="translate(0.00 0.00) scale(1.00 1.00)">
<ellipse cx="94340" cy="50870" rx="300" ry="300"  /> 
</g>
<g style="fill:#000000; fill-opacity:1.00; stroke:#000000; stroke-opacity:1.00; stroke-linecap:round; stroke-linejoin:round; stroke-width:0" 
   transform="translate(0.00 0.00) scale(1.00 1.00)">
<ellipse cx="88340" cy="50870" rx="750" ry="750"  /> 
</g>
<g style="fill:#FFFFFF; fill-opacity:1.00; stroke:#808000; stroke-opacity:1.00; stroke-linecap:round; stroke-linejoin:round; stroke-width:0" 
   transform="translate(0.00 0.00) scale(1.00 1.00)">
<ellipse cx="88340" cy="50870" rx="300" ry="300"  /> 
</g> 
</svg> 
